<svg width="260" height="89" viewBox="0 0 260 89" fill="none" xmlns="http://www.w3.org/2000/svg">
<path d="M6 9H259.165V89H6V9Z" fill="#44A6D0" fill-opacity="0.8"/>
<path d="M0 0H250V80H0V0Z" fill="#F05454" fill-opacity="0.75"/>
<path d="M41.3711 52.6367C41.3711 53.9961 41.875 55.3203 42.8828 56.6094C44.2422 58.2969 46.0703 59.1523 48.3672 59.1758V56.1523C46.75 56.1523 45.5781 55.4375 44.8516 54.0078C44.5938 53.4922 44.4648 53.0352 44.4648 52.6367V40.7891C44.4648 39.9688 44.8164 39.1836 45.5195 38.4336C46.293 37.6602 47.2422 37.2617 48.3672 37.2383V34.2148C45.6953 34.1914 43.7031 35.293 42.3906 37.5195C41.7109 38.668 41.3711 39.7578 41.3711 40.7891V52.6367ZM50.0898 59.1758C51.9648 59.1758 53.5703 58.4609 54.9062 57.0312C56.1016 55.7422 56.6992 54.2656 56.6992 52.6016L53.7812 51.8984C53.7812 52.1562 53.7695 52.3438 53.7461 52.4609C53.6992 53 53.6289 53.3984 53.5352 53.6562C53.3242 54.3359 52.9258 54.8867 52.3398 55.3086C51.7773 55.7305 51.2617 55.9766 50.793 56.0469L50.0898 56.1523V59.1758ZM50.0898 37.2383C50.0898 37.2383 50.4297 37.3203 51.1094 37.4844C52.2812 37.9766 53.0898 38.7969 53.5352 39.9453C53.6289 40.2266 53.6992 40.6016 53.7461 41.0703V41.6328L56.6992 40.8594C56.6992 39.0781 55.9609 37.4844 54.4844 36.0781C53.125 34.8359 51.6602 34.2148 50.0898 34.2148V37.2383ZM59.1602 52.1445V40.5781C59.1602 39.3359 59.6875 38.0703 60.7422 36.7812C62.1484 35.0938 63.9297 34.2383 66.0859 34.2148V37.2734C64.6562 37.2734 63.543 38 62.7461 39.4531C62.418 40.0859 62.2539 40.6484 62.2539 41.1406V52.1445C62.2539 53.6211 62.9805 54.7695 64.4336 55.5898C65.043 55.9414 65.582 56.1172 66.0508 56.1172V59.1758C64.7148 59.1758 63.3789 58.6953 62.043 57.7344C60.1445 56.3281 59.1836 54.4648 59.1602 52.1445ZM67.9844 59.1758V56.1172C68.8047 56.1172 69.6367 55.7539 70.4805 55.0273C71.3711 54.2305 71.8281 53.2695 71.8516 52.1445V41.1406C71.8516 40.2266 71.4766 39.3477 70.7266 38.5039C69.9531 37.707 69.0391 37.2969 67.9844 37.2734V34.2148C70.3516 34.2148 72.25 35.2344 73.6797 37.2734C74.5 38.4453 74.9102 39.5469 74.9102 40.5781V52.1445C74.9102 54.7461 73.75 56.7383 71.4297 58.1211C70.2109 58.8242 69.0625 59.1758 67.9844 59.1758ZM77.7578 59V39.7695H78.0391L80.8164 44.2695V59H77.7578ZM77.7578 36.3594V34.3906H80.3945L93.4023 55.2383V59H91.8906L77.7578 36.3594ZM90.3438 47.2578V34.3906H93.4023V51.7578H93.1211L90.3438 47.2578ZM95.5117 37.3789V34.3906H110.734V37.3789H104.652V59H101.559V37.3789H95.5117ZM112.422 59L117.098 38.2227H117.66L118.855 43.6719L115.445 59H112.422ZM118.047 55.0625L118.715 52.0742H122.477L118.574 34.4258H121.633L127.188 59H124.129L123.25 55.0625H118.047ZM129.438 52.6367C129.438 53.9961 129.941 55.3203 130.949 56.6094C132.309 58.2969 134.137 59.1523 136.434 59.1758V56.1523C134.816 56.1523 133.645 55.4375 132.918 54.0078C132.66 53.4922 132.531 53.0352 132.531 52.6367V40.7891C132.531 39.9688 132.883 39.1836 133.586 38.4336C134.359 37.6602 135.309 37.2617 136.434 37.2383V34.2148C133.762 34.1914 131.77 35.293 130.457 37.5195C129.777 38.668 129.438 39.7578 129.438 40.7891V52.6367ZM138.156 59.1758C140.031 59.1758 141.637 58.4609 142.973 57.0312C144.168 55.7422 144.766 54.2656 144.766 52.6016L141.848 51.8984C141.848 52.1562 141.836 52.3438 141.812 52.4609C141.766 53 141.695 53.3984 141.602 53.6562C141.391 54.3359 140.992 54.8867 140.406 55.3086C139.844 55.7305 139.328 55.9766 138.859 56.0469L138.156 56.1523V59.1758ZM138.156 37.2383C138.156 37.2383 138.496 37.3203 139.176 37.4844C140.348 37.9766 141.156 38.7969 141.602 39.9453C141.695 40.2266 141.766 40.6016 141.812 41.0703V41.6328L144.766 40.8594C144.766 39.0781 144.027 37.4844 142.551 36.0781C141.191 34.8359 139.727 34.2148 138.156 34.2148V37.2383ZM146.488 37.3789V34.3906H161.711V37.3789H155.629V59H152.535V37.3789H146.488ZM172.223 59V41.4219H172.539L175.281 48.1016V59H172.223ZM172.223 36.3242V34.3906H174.719L182.805 53.9727L188.57 40.9297H188.922V47.75L183.965 59H181.645L172.223 36.3242ZM190.68 59V34.3906H193.738V59H190.68ZM196.656 59V34.3906H209.453V37.4141H199.715V45.2188H206.148V48.2773H199.715V55.9766H209.453V59H196.656Z" fill="#FAFAFA"/>
</svg>
