<svg width="127" height="132" viewBox="0 0 127 132" fill="none" xmlns="http://www.w3.org/2000/svg">
<g clip-path="url(#clip0)">
<g style="mix-blend-mode:color-burn">
<path d="M0 132H127L127 -3.8147e-06H0L0 132Z" fill="white"/>
</g>
<path d="M24.892 59.069C24.5544 62.8702 22.6665 66.6356 22.0458 70.4333C21.7866 72.0198 21.4578 74.0902 23.368 74.8048C24.4319 75.2028 25.8487 74.6765 26.358 73.6801C26.6803 73.0497 26.631 72.1282 26.7716 71.4323C27.1174 69.7218 27.5384 68.0309 27.8448 66.3122C30.0119 54.1543 34.6222 43.2666 42.3353 33.4683C45.7646 29.112 49.6345 25.4796 54.61 22.8808C56.1574 22.0726 59.0235 21.1179 58.6322 18.982C58.4112 17.7765 57.1716 17.1602 56.007 17.4073C53.9553 17.8427 51.3998 19.4753 49.657 20.6055C49.3921 18.5888 48.7845 16.6171 48.4423 14.6112C48.1978 13.1778 48.2312 11.6491 47.9015 10.2403C47.6912 9.34189 46.7417 8.79729 45.8526 9.2636C44.7609 9.83605 45.2618 11.78 45.4139 12.7379C45.9252 15.9568 46.7552 18.947 47.498 22.1041C44.3474 23.4138 41.5764 27.1357 39.5413 29.7218C38.7527 30.7241 37.6766 31.7785 37.211 32.9688C36.2254 32.21 35.609 30.7886 35.0131 29.7218C33.9342 27.7897 32.8097 25.8906 31.6965 23.9773C31.1367 23.0149 30.5458 21.0477 29.21 20.9987C26.6513 20.9048 28.4359 24.1421 28.9917 25.1012C30.3752 27.489 31.903 29.8919 33.5755 32.0946C34.1584 32.8622 35.5159 34.1505 35.4314 35.1809C35.3562 36.0956 34.2511 37.301 33.7806 38.0889C32.4879 40.2535 30.6937 42.7451 30.099 45.2072C26.8976 43.2402 24.1555 40.6471 20.828 38.8207C19.8996 38.3112 18.1169 37.0313 17.0318 37.7896C16.1666 38.3943 16.4866 39.5649 17.2739 40.0431C19.3286 41.2908 21.4838 42.3396 23.495 43.6767C25.2574 44.8486 27.0138 46.4802 28.956 47.3302C28.0908 49.3765 27.2317 51.4426 26.5969 53.5742C26.3785 54.3074 26.1945 55.9867 25.5825 56.4849C25.2559 56.7507 24.6318 56.5537 24.257 56.4991C23.1181 56.3334 21.9733 56.2003 20.828 56.0931C18.3076 55.8572 15.5711 56.3017 13.081 56.6623C12.1165 56.8021 10.7787 56.7943 9.91158 57.2528C8.66524 57.9116 9.12825 59.8655 10.541 59.9185C12.3098 59.9848 14.2298 59.2562 16.002 59.0903C18.9728 58.812 21.9215 59.069 24.892 59.069Z" fill="#F59B23"/>
<path d="M10.541 57.0709H10.922V56.946L10.541 57.0709Z" fill="#F9D7AA"/>
<path d="M10.922 59.9432H11.303V59.8184L10.922 59.9432Z" fill="#F9C989"/>
<path d="M11.303 56.946H11.684V56.8212L11.303 56.946Z" fill="#FADBAD"/>
<path d="M11.684 59.8184H12.065V59.6935L11.684 59.8184Z" fill="#F8CE94"/>
<path d="M12.954 56.6963H13.335V56.5714L12.954 56.6963Z" fill="#F9D098"/>
<path d="M13.843 59.4437H14.351V59.3189L13.843 59.4437Z" fill="#FDE4C5"/>
<path d="M14.605 59.3188H15.113V59.194L14.605 59.3188Z" fill="#FAD9AC"/>
<path d="M15.621 59.194H16.51V59.0691L15.621 59.194Z" fill="#FCD39F"/>
<path d="M16.002 56.3217H16.891V56.1968L16.002 56.3217Z" fill="#F8BC73"/>
<path d="M16.383 39.0879H16.51V38.5884L16.383 39.0879Z" fill="#FAD4A3"/>
<path d="M17.272 56.1968H17.78V56.0719L17.272 56.1968Z" fill="#FDDDB6"/>
<path d="M17.399 59.0691H18.415V58.9442L17.399 59.0691Z" fill="#F8CE94"/>
<path d="M17.399 37.5894H18.034V37.4645L17.399 37.5894Z" fill="#FAC076"/>
<path d="M17.78 56.1968H18.288V56.0719L17.78 56.1968Z" fill="#F7BF74"/>
<path d="M21.082 56.1968H21.717V56.0719L21.082 56.1968Z" fill="#FAD5A1"/>
<path d="M21.59 59.0691H22.733V58.9442L21.59 59.0691Z" fill="#FACD92"/>
<path d="M21.717 72.806H21.844V71.9318L21.717 72.806Z" fill="#FEE3C5"/>
<path d="M21.844 71.4324H21.971V70.808L21.844 71.4324Z" fill="#FBE1BE"/>
<path d="M21.971 70.5582H22.098V70.1836L21.971 70.5582Z" fill="#FAC788"/>
<path d="M22.098 69.8088H22.225V69.4342L22.098 69.8088Z" fill="#FACC8E"/>
<path d="M22.225 69.1844H22.352V68.8098L22.225 69.1844Z" fill="#F9CD90"/>
<path d="M22.3943 68.4768L22.4367 68.3936L22.3943 68.4768Z" fill="#FBD7A7"/>
<path d="M22.352 56.3217H22.987V56.1968L22.352 56.3217Z" fill="#F9D09C"/>
<path d="M22.5213 67.9773L22.5637 67.8941L22.5213 67.9773Z" fill="#FBCE95"/>
<path d="M22.6483 67.4778L22.6907 67.3946L22.6483 67.4778Z" fill="#FACB93"/>
<path d="M22.7753 66.9781L22.8177 66.895L22.7753 66.9781Z" fill="#FACC91"/>
<path d="M22.9023 66.4788L22.9447 66.3956L22.9023 66.4788Z" fill="#FAD19B"/>
<path d="M23.0293 65.9791L23.0717 65.896L23.0293 65.9791Z" fill="#FBD6A9"/>
<path d="M23.368 56.4465H24.003V56.3216L23.368 56.4465Z" fill="#FDD7AA"/>
<path d="M23.5373 64.2307L23.5797 64.1475L23.5373 64.2307Z" fill="#FBD7A7"/>
<path d="M23.6643 63.7313L23.7067 63.6481L23.6643 63.7313Z" fill="#FAD4A3"/>
<path d="M23.7913 63.2317L23.8337 63.1485L23.7913 63.2317Z" fill="#F7D6A3"/>
<path d="M23.9183 62.7322L23.9607 62.649L23.9183 62.7322Z" fill="#FCD7AA"/>
<path d="M24.257 56.5714H24.765V56.4465L24.257 56.5714Z" fill="#FCDAAD"/>
<path d="M24.7227 74.8875L24.8073 74.8457L24.7227 74.8875Z" fill="#FACD92"/>
<path d="M24.8073 59.6101L24.8497 59.5269L24.8073 59.6101Z" fill="#FAD29F"/>
<path d="M25.2307 56.6547L25.3153 56.613L25.2307 56.6547Z" fill="#FBD3A0"/>
<path d="M26.543 73.0558H26.67V72.1816L26.543 73.0558Z" fill="#F8BD6F"/>
<path d="M26.67 71.9319H26.797V71.5572L26.67 71.9319Z" fill="#FAD9AC"/>
<path d="M26.8393 71.0992L26.8817 71.0161L26.8393 71.0992Z" fill="#F9D09A"/>
<path d="M26.924 70.5582H27.051V70.1836L26.924 70.5582Z" fill="#FAD19D"/>
<path d="M27.0933 69.8505L27.1357 69.7673L27.0933 69.8505Z" fill="#F9CC8B"/>
<path d="M27.3473 68.7266L27.3897 68.6434L27.3473 68.7266Z" fill="#F9C98B"/>
<path d="M27.559 67.6859H27.686V67.3113L27.559 67.6859Z" fill="#F8CA8E"/>
<path d="M27.7283 66.9781L27.7707 66.895L27.7283 66.9781Z" fill="#F9C480"/>
<path d="M27.813 66.437H27.94V66.0624L27.813 66.437Z" fill="#FACD94"/>
<path d="M27.9823 65.6045L28.0247 65.5213L27.9823 65.6045Z" fill="#F9C989"/>
<path d="M28.1093 64.9801L28.1517 64.8969L28.1093 64.9801Z" fill="#F9C886"/>
<path d="M28.2363 64.3557L28.2787 64.2726L28.2363 64.3557Z" fill="#F8C27A"/>
<path d="M28.321 63.9395H28.448V63.5648L28.321 63.9395Z" fill="#FAD5A1"/>
<path d="M28.4903 63.2317L28.5327 63.1485L28.4903 63.2317Z" fill="#F9D098"/>
<path d="M28.575 62.6907H28.702V62.316L28.575 62.6907Z" fill="#FBD09D"/>
<path d="M28.702 62.0662H28.829V61.6915L28.702 62.0662Z" fill="#FBD3A0"/>
<path d="M28.8713 61.2336L28.9137 61.1505L28.8713 61.2336Z" fill="#F7C179"/>
<path d="M28.8713 47.4967L28.9137 47.4135L28.8713 47.4967Z" fill="#FBCE95"/>
<path d="M28.9983 60.7341L29.0407 60.651L28.9983 60.7341Z" fill="#FAD8AA"/>
<path d="M29.083 60.193H29.21V59.8184L29.083 60.193Z" fill="#FACF9A"/>
<path d="M29.2523 59.4852L29.2947 59.4021L29.2523 59.4852Z" fill="#F9C782"/>
<path d="M29.3793 58.9857L29.4217 58.9025L29.3793 58.9857Z" fill="#F8C888"/>
<path d="M29.5063 58.4862L29.5487 58.403L29.5063 58.4862Z" fill="#FAC581"/>
<path d="M30.2683 55.8638L30.3107 55.7806L30.2683 55.8638Z" fill="#F7BF75"/>
<path d="M30.6493 54.6149L30.6917 54.5317L30.6493 54.6149Z" fill="#F8BE75"/>
<path d="M35.306 34.9669H35.433V34.4674L35.306 34.9669Z" fill="#F8BE74"/>
<path d="M40.64 68.6849H40.767V68.0605L40.64 68.6849Z" fill="#A2A2A2"/>
<path d="M40.64 68.0605H40.767V67.3113L40.64 68.0605Z" fill="#676767"/>
<path d="M40.64 67.3113H40.767V64.439L40.64 67.3113Z" fill="#1B1B1B"/>
<path d="M40.64 64.439H40.767V63.4399L40.64 64.439Z" fill="#696969"/>
<path d="M40.64 63.4399H40.767V62.9404L40.64 63.4399Z" fill="#DADADA"/>
<path d="M40.767 69.6841H40.894V69.3094L40.767 69.6841Z" fill="#A8A8A8"/>
<path d="M40.767 69.3093H40.894V68.9347L40.767 69.3093Z" fill="#454545"/>
<path d="M78.486 82.2971C77.915 83.4996 77.2237 84.6175 76.883 85.9187C75.5678 90.9418 77.1621 95.7365 81.031 99.2454C82.5694 100.641 84.2494 101.72 85.979 102.861C86.6121 103.279 87.6745 103.851 87.8385 104.651C88.0875 105.864 86.5866 107.41 85.9058 108.272C83.5914 111.205 79.6441 114.561 82.5232 118.513C84.2581 120.894 88.0069 121.414 90.297 119.486C91.6788 118.322 92.7019 116.724 93.7292 115.266C95.7273 112.429 97.8797 109.352 98.039 105.775C98.2436 101.18 96.323 97.7422 92.71 94.9106C91.1028 93.6511 89.209 92.7064 87.8496 91.1632C87.3116 90.5524 86.6698 89.9117 86.7651 89.0407C86.9486 87.3652 88.5566 85.6499 89.6099 84.4201C93.0796 80.3692 98.7506 76.1469 96.1551 70.1836C95.7824 69.327 95.2737 68.6019 94.6131 67.9357C94.0744 67.3923 93.5331 66.767 92.837 66.4166C89.2273 64.5993 85.9743 68.3171 83.058 69.8956C76.8116 73.2768 69.4836 76.3029 62.23 75.8145C57.7635 75.5136 53.2991 73.512 51.8197 68.9347C51.0816 66.6514 51.5393 63.6361 51.9328 61.3169C52.9994 55.0319 56.9531 48.8975 61.468 44.4579C63.3104 42.6462 65.3398 40.8985 67.691 39.7461C71.043 38.1032 74.4348 42.147 77.4568 38.9612C79.4 36.9125 78.7189 33.8481 76.581 32.2663C73.6857 30.1241 69.3547 29.1856 65.786 29.9029C61.5964 30.745 57.8686 33.3204 54.737 36.0701C47.0789 42.7942 40.767 53.6147 40.767 63.9395C40.767 66.579 40.6041 69.2394 41.346 71.807C43.2764 78.4876 49.1819 83.8082 56.007 85.4143C59.4872 86.2334 63.3988 86.1036 66.929 85.6882C70.7466 85.239 75.1223 84.1794 78.486 82.2971Z" fill="black"/>
<path d="M40.767 62.3159H40.894V61.9413L40.767 62.3159Z" fill="#767676"/>
<path d="M40.767 61.9414H40.894V61.5668L40.767 61.9414Z" fill="#C2C2C2"/>
<path d="M40.9363 70.2251L40.9787 70.1419L40.9363 70.2251Z" fill="#717171"/>
<path d="M40.894 61.3169H41.021V60.9423L40.894 61.3169Z" fill="#595959"/>
<path d="M40.9363 60.859L40.9787 60.7758L40.9363 60.859Z" fill="#B9B9B9"/>
<path d="M41.0633 70.8495L41.1057 70.7663L41.0633 70.8495Z" fill="#6C6C6C"/>
<path d="M41.021 60.3179H41.148V59.9432L41.021 60.3179Z" fill="#6F6F6F"/>
<path d="M41.1903 71.3491L41.2327 71.2659L41.1903 71.3491Z" fill="#5D5D5D"/>
<path d="M41.1903 59.4852L41.2327 59.4021L41.1903 59.4852Z" fill="#6A6A6A"/>
<path d="M41.1903 59.2355L41.2327 59.1523L41.1903 59.2355Z" fill="#BFBFBF"/>
<path d="M41.3173 58.736L41.3597 58.6528L41.3173 58.736Z" fill="#848484"/>
<path d="M41.4443 72.2231L41.4867 72.14L41.4443 72.2231Z" fill="#5A5A5A"/>
<path d="M41.4443 58.1116L41.4867 58.0284L41.4443 58.1116Z" fill="#8D8D8D"/>
<path d="M41.529 72.6812L41.656 72.5563L41.529 72.6812Z" fill="#A6A6A6"/>
<path d="M41.5713 57.4872L41.6137 57.404L41.5713 57.4872Z" fill="#ABABAB"/>
<path d="M41.6983 56.9877L41.7407 56.9045L41.6983 56.9877Z" fill="#ACACAC"/>
<path d="M41.783 73.3057L41.91 73.1808L41.783 73.3057Z" fill="#717171"/>
<path d="M41.8253 56.488L41.8677 56.4049L41.8253 56.488Z" fill="#B9B9B9"/>
<path d="M41.9523 56.1135L41.9947 56.0303L41.9523 56.1135Z" fill="#919191"/>
<path d="M42.037 73.9299L42.164 73.805L42.037 73.9299Z" fill="#838383"/>
<path d="M42.0793 55.6139L42.1217 55.5307L42.0793 55.6139Z" fill="#BFBFBF"/>
<path d="M42.164 74.1797L42.291 74.0548L42.164 74.1797Z" fill="#5E5E5E"/>
<path d="M42.2063 55.2394L42.2487 55.1562L42.2063 55.2394Z" fill="#AFAFAF"/>
<path d="M42.418 54.5732L42.545 54.4484L42.418 54.5732Z" fill="#565656"/>
<path d="M42.545 54.1987L42.672 54.0739L42.545 54.1987Z" fill="#5D5D5D"/>
<path d="M42.672 53.824L42.799 53.6991L42.672 53.824Z" fill="#787878"/>
<path d="M42.799 75.4286L42.926 75.3037L42.799 75.4286Z" fill="#626262"/>
<path d="M42.799 53.4493L42.926 53.3245L42.799 53.4493Z" fill="#969696"/>
<path d="M42.926 75.6783L43.053 75.5535L42.926 75.6783Z" fill="#777777"/>
<path d="M42.926 53.1996L43.053 53.0747L42.926 53.1996Z" fill="#5E5E5E"/>
<path d="M43.053 75.9281L43.18 75.8032L43.053 75.9281Z" fill="#A3A3A3"/>
<path d="M43.053 52.825L43.18 52.7001L43.053 52.825Z" fill="#929292"/>
<path d="M43.18 52.5752L43.307 52.4503L43.18 52.5752Z" fill="#646464"/>
<path d="M43.307 76.3027L43.434 76.1779L43.307 76.3027Z" fill="#6D6D6D"/>
<path d="M43.434 51.9508L43.561 51.8259L43.434 51.9508Z" fill="#8C8C8C"/>
<path d="M43.561 51.701L43.688 51.5762L43.561 51.701Z" fill="#6D6D6D"/>
<path d="M43.688 76.9271L43.815 76.8022L43.688 76.9271Z" fill="#A0A0A0"/>
<path d="M43.688 51.4513L43.815 51.3264L43.688 51.4513Z" fill="#5C5C5C"/>
<path d="M43.942 77.3018L44.069 77.1769L43.942 77.3018Z" fill="#A8A8A8"/>
<path d="M44.069 77.4268L44.196 77.3019L44.069 77.4268Z" fill="#5D5D5D"/>
<path d="M44.196 50.3274L44.323 50.2025L44.196 50.3274Z" fill="#9B9B9B"/>
<path d="M44.323 77.8013L44.45 77.6764L44.323 77.8013Z" fill="#808080"/>
<path d="M44.323 50.0775L44.45 49.9526L44.323 50.0775Z" fill="#949494"/>
<path d="M44.45 49.8278L44.577 49.7029L44.45 49.8278Z" fill="#979797"/>
<path d="M44.577 49.578L44.704 49.4531L44.577 49.578Z" fill="#9A9A9A"/>
<path d="M44.704 78.3008L44.831 78.1759L44.704 78.3008Z" fill="#939393"/>
<path d="M44.704 49.3282L44.831 49.2034L44.704 49.3282Z" fill="#9E9E9E"/>
<path d="M44.831 78.4258L44.958 78.3009L44.831 78.4258Z" fill="#5A5A5A"/>
<path d="M44.831 49.0786L44.958 48.9537L44.831 49.0786Z" fill="#A1A1A1"/>
<path d="M44.958 48.8287L45.085 48.7039L44.958 48.8287Z" fill="#A3A3A3"/>
<path d="M45.085 11.2394H45.212V10.1154L45.085 11.2394Z" fill="#FBC27B"/>
<path d="M45.212 78.9252L45.339 78.8003L45.212 78.9252Z" fill="#A8A8A8"/>
<path d="M45.212 12.1135H45.339V11.4891L45.212 12.1135Z" fill="#FABB6E"/>
<path d="M45.339 79.05L45.466 78.9252L45.339 79.05Z" fill="#7F7F7F"/>
<path d="M45.339 12.9877H45.466V12.613L45.339 12.9877Z" fill="#F8D4A2"/>
<path d="M45.466 79.175L45.593 79.0502L45.466 79.175Z" fill="#585858"/>
<path d="M45.466 47.9546L45.593 47.8297L45.466 47.9546Z" fill="#666666"/>
<path d="M45.466 13.8618H45.593V13.3623L45.466 13.8618Z" fill="#F9B866"/>
<path d="M45.593 47.7048L45.72 47.58L45.593 47.7048Z" fill="#7A7A7A"/>
<path d="M45.593 14.736H45.72V14.2364L45.593 14.736Z" fill="#FAB969"/>
<path d="M45.72 47.4551L45.847 47.3302L45.72 47.4551Z" fill="#8F8F8F"/>
<path d="M45.72 15.6102H45.847V15.2356L45.72 15.6102Z" fill="#FBD9AC"/>
<path d="M45.847 16.3595H45.974V15.9849L45.847 16.3595Z" fill="#FBD7A7"/>
<path d="M46.0163 16.9006L46.0587 16.8175L46.0163 16.9006Z" fill="#F9CB8F"/>
<path d="M46.101 46.8306L46.228 46.7057L46.101 46.8306Z" fill="#606060"/>
<path d="M46.228 46.5808L46.355 46.4559L46.228 46.5808Z" fill="#858585"/>
<path d="M46.228 9.11633H46.863V8.99146L46.228 9.11633Z" fill="#FBDAAF"/>
<path d="M46.355 46.3312L46.482 46.2063L46.355 46.3312Z" fill="#A6A6A6"/>
<path d="M46.609 45.9564L46.736 45.8315L46.609 45.9564Z" fill="#5D5D5D"/>
<path d="M46.736 45.7067L46.863 45.5818L46.736 45.7067Z" fill="#929292"/>
<path d="M46.99 45.3322L47.117 45.2073L46.99 45.3322Z" fill="#636363"/>
<path d="M47.117 45.0823L47.244 44.9574L47.117 45.0823Z" fill="#989898"/>
<path d="M47.371 44.7076L47.498 44.5828L47.371 44.7076Z" fill="#696969"/>
<path d="M47.625 81.2981L47.752 81.1732L47.625 81.2981Z" fill="#737373"/>
<path d="M47.752 81.4229L47.879 81.298L47.752 81.4229Z" fill="#9D9D9D"/>
<path d="M47.752 44.0833L47.879 43.9584L47.752 44.0833Z" fill="#9C9C9C"/>
<path d="M47.879 10.4901H48.006V10.1154L47.879 10.4901Z" fill="#F9D098"/>
<path d="M48.006 43.7086L48.133 43.5837L48.006 43.7086Z" fill="#8F8F8F"/>
<path d="M48.006 11.8637H48.133V11.3642L48.006 11.8637ZM48.133 12.8628H48.26V12.2384L48.133 12.8628Z" fill="#FAD19D"/>
<path d="M48.26 81.7975L48.387 81.6726L48.26 81.7975Z" fill="#575757"/>
<path d="M48.26 43.334L48.387 43.2091L48.26 43.334Z" fill="#818181"/>
<path d="M48.26 13.8618H48.387V13.2374L48.26 13.8618Z" fill="#FAD19B"/>
<path d="M48.387 81.9225L48.514 81.7976L48.387 81.9225Z" fill="#959595"/>
<path d="M48.387 14.736H48.514V14.2364L48.387 14.736Z" fill="#FDDBB5"/>
<path d="M48.514 42.9592L48.641 42.8344L48.514 42.9592Z" fill="#919191"/>
<path d="M48.5563 15.2772L48.5987 15.194L48.5563 15.2772Z" fill="#F9CB8D"/>
<path d="M48.6833 15.9016L48.7257 15.8184L48.6833 15.9016Z" fill="#FCCD95"/>
<path d="M48.8103 16.526L48.8527 16.4428L48.8103 16.526Z" fill="#F9CE97"/>
<path d="M48.895 82.2971L49.022 82.1722L48.895 82.2971Z" fill="#929292"/>
<path d="M48.895 42.4598L49.022 42.3349L48.895 42.4598Z" fill="#626262"/>
<path d="M48.9373 17.1504L48.9797 17.0672L48.9373 17.1504Z" fill="#FACD92"/>
<path d="M49.0643 17.7748L49.1067 17.6916L49.0643 17.7748Z" fill="#F9C788"/>
<path d="M49.149 42.0851L49.276 41.9602L49.149 42.0851Z" fill="#A3A3A3"/>
<path d="M49.276 82.5469L49.403 82.422L49.276 82.5469Z" fill="#818181"/>
<path d="M49.276 41.9602L49.403 41.8353L49.276 41.9602Z" fill="#676767"/>
<path d="M49.3183 18.8987L49.3607 18.8155L49.3183 18.8987Z" fill="#F7D5A7"/>
<path d="M49.4453 19.5232L49.4877 19.44L49.4453 19.5232Z" fill="#FCD2A0"/>
<path d="M49.53 20.2308H49.657V19.8562L49.53 20.2308Z" fill="#FBD09B"/>
<path d="M49.657 82.7966L49.784 82.6717L49.657 82.7966Z" fill="#767676"/>
<path d="M49.657 41.4608L49.784 41.3359L49.657 41.4608Z" fill="#7F7F7F"/>
<path d="M50.038 83.0464L50.165 82.9215L50.038 83.0464Z" fill="#888888"/>
<path d="M50.165 40.8363L50.292 40.7114L50.165 40.8363Z" fill="#919191"/>
<path d="M50.292 40.7114L50.419 40.5865L50.292 40.7114Z" fill="#666666"/>
<path d="M50.673 83.421L50.8 83.2961L50.673 83.421Z" fill="#8C8C8C"/>
<path d="M50.8 40.087L50.927 39.9622L50.8 40.087Z" fill="#A9A9A9"/>
<path d="M50.927 83.5459L51.054 83.421L50.927 83.5459Z" fill="#707070"/>
<path d="M50.927 39.9622L51.054 39.8373L50.927 39.9622Z" fill="#858585"/>
<path d="M51.054 39.8373L51.181 39.7124L51.054 39.8373Z" fill="#676767"/>
<path d="M51.181 83.6708L51.308 83.5459L51.181 83.6708Z" fill="#5B5B5B"/>
<path d="M51.562 68.3103H51.689V67.9357L51.562 68.3103Z" fill="#646464"/>
<path d="M51.562 67.9357H51.689V64.5639L51.562 67.9357Z" fill="#DDDDDD"/>
<path d="M51.562 64.5638H51.689V63.9394L51.562 64.5638Z" fill="#898989"/>
<path d="M51.562 63.9395H51.689V63.5648L51.562 63.9395Z" fill="#535353"/>
<path d="M51.7313 68.7266L51.7737 68.6434L51.7313 68.7266Z" fill="#A2A2A2"/>
<path d="M51.689 63.0653H51.816V62.6907L51.689 63.0653Z" fill="#C1C1C1"/>
<path d="M51.689 62.6907H51.816V62.316L51.689 62.6907Z" fill="#6F6F6F"/>
<path d="M51.816 61.9414H51.943V61.5668L51.816 61.9414Z" fill="#A9A9A9"/>
<path d="M51.816 38.9631L51.943 38.8383L51.816 38.9631Z" fill="#9D9D9D"/>
<path d="M51.943 84.0454L52.07 83.9205L51.943 84.0454Z" fill="#5E5E5E"/>
<path d="M51.943 69.5592L52.07 69.4343L51.943 69.5592Z" fill="#6E6E6E"/>
<path d="M51.9853 60.9839L52.0277 60.9007L51.9853 60.9839Z" fill="#767676"/>
<path d="M51.943 38.8381L52.07 38.7132L51.943 38.8381Z" fill="#838383"/>
<path d="M52.07 69.8088L52.197 69.684L52.07 69.8088Z" fill="#9F9F9F"/>
<path d="M52.1123 60.3594L52.1547 60.2762L52.1123 60.3594ZM52.07 38.7133L52.197 38.5884L52.07 38.7133Z" fill="#696969"/>
<path d="M52.197 84.1703L52.324 84.0454L52.197 84.1703Z" fill="#707070"/>
<path d="M52.2393 59.86L52.2817 59.7768L52.2393 59.86Z" fill="#757575"/>
<path d="M52.3663 59.3604L52.4087 59.2772L52.3663 59.3604Z" fill="#666666"/>
<path d="M52.451 84.2952L52.578 84.1703L52.451 84.2952Z" fill="#8E8E8E"/>
<path d="M52.4933 58.861L52.5357 58.7778L52.4933 58.861Z" fill="#414141"/>
<path d="M52.578 70.808L52.705 70.6831L52.578 70.808Z" fill="#828282"/>
<path d="M52.6203 58.4862L52.6627 58.403L52.6203 58.4862Z" fill="#515151"/>
<path d="M52.832 71.1825L52.959 71.0576L52.832 71.1825Z" fill="#969696"/>
<path d="M52.832 57.8203L52.959 57.6954L52.832 57.8203Z" fill="#A5A5A5"/>
<path d="M52.959 57.4456L53.086 57.3207L52.959 57.4456Z" fill="#909090"/>
<path d="M53.086 84.5449L53.213 84.42L53.086 84.5449Z" fill="#787878"/>
<path d="M53.086 71.5573L53.213 71.4324L53.086 71.5573Z" fill="#737373"/>
<path d="M53.086 57.0709L53.213 56.946L53.086 57.0709Z" fill="#6F6F6F"/>
<path d="M53.213 56.8212L53.34 56.6963L53.213 56.8212Z" fill="#A6A6A6"/>
<path d="M53.34 56.4465L53.467 56.3216L53.34 56.4465Z" fill="#6A6A6A"/>
<path d="M53.467 56.1968L53.594 56.0719L53.467 56.1968Z" fill="#929292"/>
<path d="M53.594 72.1816L53.721 72.0568L53.594 72.1816Z" fill="#767676"/>
<path d="M53.721 84.7947L53.848 84.6698L53.721 84.7947Z" fill="#999999"/>
<path d="M53.721 72.3065L53.848 72.1816L53.721 72.3065Z" fill="#9B9B9B"/>
<path d="M53.848 55.3226L53.975 55.1977L53.848 55.3226Z" fill="#686868"/>
<path d="M53.975 55.0729L54.102 54.948L53.975 55.0729Z" fill="#7D7D7D"/>
<path d="M54.102 84.9196L54.229 84.7947L54.102 84.9196Z" fill="#888888"/>
<path d="M54.102 54.8231L54.229 54.6982L54.102 54.8231Z" fill="#8F8F8F"/>
<path d="M54.229 54.5732L54.356 54.4484L54.229 54.5732Z" fill="#939393"/>
<path d="M54.356 54.3235L54.483 54.1986L54.356 54.3235Z" fill="#949494"/>
<path d="M54.483 85.0444L54.61 84.9196L54.483 85.0444Z" fill="#828282"/>
<path d="M54.483 54.0739L54.61 53.9489L54.483 54.0739Z" fill="#969696"/>
<path d="M54.483 36.3406L54.61 36.2157L54.483 36.3406Z" fill="#5A5A5A"/>
<path d="M54.61 53.824L54.737 53.6991L54.61 53.824Z" fill="#989898"/>
<path d="M54.61 36.2157L54.737 36.0908L54.61 36.2157Z" fill="#717171"/>
<path d="M54.737 53.5742L54.864 53.4493L54.737 53.5742Z" fill="#929292"/>
<path d="M54.737 36.0908L54.864 35.9659L54.737 36.0908Z" fill="#8E8E8E"/>
<path d="M54.864 73.4305L54.991 73.3057L54.864 73.4305Z" fill="#9F9F9F"/>
<path d="M54.864 53.3245L54.991 53.1996L54.864 53.3245Z" fill="#808080"/>
<path d="M54.864 35.9659L54.991 35.8411L54.864 35.9659Z" fill="#A9A9A9"/>
<path d="M54.991 73.5554L55.118 73.4305L54.991 73.5554Z" fill="#707070"/>
<path d="M54.991 53.0748L55.118 52.9499L54.991 53.0748Z" fill="#717171"/>
<path d="M55.118 52.825L55.245 52.7001L55.118 52.825Z" fill="#5F5F5F"/>
<path d="M55.3297 85.2527L55.4143 85.211L55.3297 85.2527Z" fill="#4D4D4D"/>
<path d="M55.499 73.9299L55.626 73.805L55.499 73.9299Z" fill="#5A5A5A"/>
<path d="M55.499 52.2006L55.626 52.0757L55.499 52.2006Z" fill="#9F9F9F"/>
<path d="M55.626 51.9508L55.753 51.8259L55.626 51.9508Z" fill="#7C7C7C"/>
<path d="M55.626 35.3416L55.753 35.2167L55.626 35.3416Z" fill="#626262"/>
<path d="M55.753 51.701L55.88 51.5762L55.753 51.701Z" fill="#595959"/>
<path d="M55.753 35.2167L55.88 35.0918L55.753 35.2167Z" fill="#8E8E8E"/>
<path d="M56.007 51.3264L56.134 51.2015L56.007 51.3264Z" fill="#A3A3A3"/>
<path d="M56.2187 85.5024L56.3033 85.4607L56.2187 85.5024Z" fill="#737373"/>
<path d="M56.134 74.3047L56.261 74.1798L56.134 74.3047Z" fill="#7F7F7F"/>
<path d="M56.134 51.0767L56.261 50.9518L56.134 51.0767Z" fill="#6D6D6D"/>
<path d="M56.388 74.4296L56.515 74.3047L56.388 74.4296Z" fill="#9D9D9D"/>
<path d="M56.388 50.702L56.515 50.5771L56.388 50.702Z" fill="#9B9B9B"/>
<path d="M56.388 34.7172L56.515 34.5923L56.388 34.7172Z" fill="#6A6A6A"/>
<path d="M56.515 50.4523L56.642 50.3274L56.515 50.4523Z" fill="#666666"/>
<path d="M56.515 34.5923L56.642 34.4674L56.515 34.5923Z" fill="#979797"/>
<path d="M56.642 85.6688H57.023V85.5439L56.642 85.6688Z" fill="#8C8C8C"/>
<path d="M56.769 50.0775L56.896 49.9526L56.769 50.0775Z" fill="#848484"/>
<path d="M56.896 74.6793L57.023 74.5544L56.896 74.6793Z" fill="#A7A7A7"/>
<path d="M57.023 49.7029L57.15 49.578L57.023 49.7029Z" fill="#919191"/>
<path d="M57.023 34.2175L57.15 34.0927L57.023 34.2175Z" fill="#767676"/>
<path d="M57.15 74.8042L57.277 74.6793L57.15 74.8042Z" fill="#929292"/>
<path d="M57.3617 85.7522L57.4463 85.7105L57.3617 85.7522Z" fill="#A3A3A3"/>
<path d="M57.277 49.3282L57.404 49.2034L57.277 49.3282Z" fill="#A0A0A0"/>
<path d="M57.404 74.9291L57.531 74.8042L57.404 74.9291Z" fill="#747474"/>
<path d="M57.6157 85.7522L57.7003 85.7105L57.6157 85.7522Z" fill="#505050"/>
<path d="M57.531 48.9536L57.658 48.8287L57.531 48.9536Z" fill="#939393"/>
<path d="M57.531 33.843L57.658 33.7181L57.531 33.843Z" fill="#7B7B7B"/>
<path d="M57.785 48.579L57.912 48.4541L57.785 48.579Z" fill="#767676"/>
<path d="M57.912 33.5933L58.039 33.4684L57.912 33.5933Z" fill="#5F5F5F"/>
<path d="M58.039 75.1788L58.166 75.0539L58.039 75.1788Z" fill="#7F7F7F"/>
<path d="M58.166 85.9187H58.801V85.7938L58.166 85.9187Z" fill="#777777"/>
<path d="M58.166 48.0795L58.293 47.9546L58.166 48.0795Z" fill="#737373"/>
<path d="M58.674 75.4286L58.801 75.3037L58.674 75.4286Z" fill="#6C6C6C"/>
<path d="M58.674 47.4551L58.801 47.3302L58.674 47.4551Z" fill="#808080"/>
<path d="M58.674 33.0936L58.801 32.9688L58.674 33.0936Z" fill="#5B5B5B"/>
<path d="M58.674 19.7313H58.801V19.1069L58.674 19.7313Z" fill="#FEE3C6"/>
<path d="M59.1397 75.5118L59.2243 75.4701L59.1397 75.5118Z" fill="#B9B9B9"/>
<path d="M59.055 32.844L59.182 32.7191L59.055 32.844Z" fill="#777777"/>
<path d="M59.182 46.8306L59.309 46.7057L59.182 46.8306Z" fill="#626262"/>
<path d="M59.309 46.7058L59.436 46.5809L59.309 46.7058Z" fill="#8B8B8B"/>
<path d="M59.5207 75.6367L59.6053 75.595L59.5207 75.6367Z" fill="#7F7F7F"/>
<path d="M59.436 32.5941L59.563 32.4692L59.436 32.5941Z" fill="#9B9B9B"/>
<path d="M59.563 86.0436H61.087V85.9187L59.563 86.0436Z" fill="#979797"/>
<path d="M59.69 32.4692L59.817 32.3444L59.69 32.4692Z" fill="#676767"/>
<path d="M59.944 45.9564L60.071 45.8315L59.944 45.9564Z" fill="#747474"/>
<path d="M60.071 75.8032H60.452V75.6783L60.071 75.8032Z" fill="#3E3E3E"/>
<path d="M60.071 45.8315L60.198 45.7066L60.071 45.8315Z" fill="#9A9A9A"/>
<path d="M60.071 32.2195L60.198 32.0946L60.071 32.2195Z" fill="#9E9E9E"/>
<path d="M60.325 32.0946L60.452 31.9697L60.325 32.0946Z" fill="#777777"/>
<path d="M60.452 75.8032H61.214V75.6783L60.452 75.8032Z" fill="#B0B0B0"/>
<path d="M60.96 31.72L61.087 31.5951L60.96 31.72Z" fill="#A7A7A7"/>
<path d="M61.087 86.0436H63.881V85.9187L61.087 86.0436Z" fill="#555555"/>
<path d="M61.214 31.5951L61.341 31.4702L61.214 31.5951Z" fill="#939393"/>
<path d="M61.468 31.4702L61.595 31.3453L61.468 31.4702Z" fill="#848484"/>
<path d="M61.722 31.3453L61.849 31.2205L61.722 31.3453Z" fill="#898989"/>
<path d="M61.976 31.2205L62.103 31.0956L61.976 31.2205Z" fill="#8F8F8F"/>
<path d="M62.23 31.0956L62.357 30.9707L62.23 31.0956Z" fill="#9D9D9D"/>
<path d="M62.611 75.9281H64.008V75.8032L62.611 75.9281Z" fill="#1D1D1D"/>
<path d="M62.611 43.334L62.738 43.2091L62.611 43.334Z" fill="#A7A7A7"/>
<path d="M62.738 43.2091L62.865 43.0842L62.738 43.2091Z" fill="#8A8A8A"/>
<path d="M62.865 43.0842L62.992 42.9594L62.865 43.0842Z" fill="#6D6D6D"/>
<path d="M62.865 30.8458L62.992 30.7209L62.865 30.8458Z" fill="#787878"/>
<path d="M63.5 30.5961L63.627 30.4712L63.5 30.5961Z" fill="#989898"/>
<path d="M63.627 42.4598L63.754 42.3349L63.627 42.4598Z" fill="#A0A0A0"/>
<path d="M63.754 42.335L63.881 42.2101L63.754 42.335Z" fill="#797979"/>
<path d="M63.881 86.0436H64.897V85.9187L63.881 86.0436Z" fill="#B1B1B1"/>
<path d="M63.881 30.4711L64.008 30.3462L63.881 30.4711Z" fill="#7B7B7B"/>
<path d="M64.389 58.1948H64.516V56.5714L64.389 58.1948Z" fill="#F8CC8F"/>
<path d="M64.389 41.8353L64.516 41.7104L64.389 41.8353Z" fill="#8D8D8D"/>
<path d="M64.5583 58.736L64.6007 58.6528L64.5583 58.736Z" fill="#F8C886"/>
<path d="M64.5751 58.5695C65.6241 64.2888 74.6276 62.3049 73.6011 56.6963C72.9319 53.0406 67.9479 51.502 65.4468 54.4489C64.5088 55.554 64.3209 57.1843 64.5751 58.5695Z" fill="#F59B23"/>
<path d="M64.5583 56.2384L64.6007 56.1552L64.5583 56.2384Z" fill="#FCD6A5"/>
<path d="M64.7277 30.1798L64.8123 30.1381L64.7277 30.1798Z" fill="#373737"/>
<path d="M64.897 41.4608L65.024 41.3359L64.897 41.4608Z" fill="#757575"/>
<path d="M65.1087 30.0549L65.1933 30.0132L65.1087 30.0549Z" fill="#5A5A5A"/>
<path d="M65.151 85.9187H65.786V85.7938L65.151 85.9187Z" fill="#595959"/>
<path d="M65.278 75.8032H65.913V75.6783L65.278 75.8032Z" fill="#BDBDBD"/>
<path d="M65.278 41.2109L65.405 41.0861L65.278 41.2109Z" fill="#818181"/>
<path d="M65.6167 29.9301L65.7013 29.8883L65.6167 29.9301Z" fill="#616161"/>
<path d="M65.659 40.9612L65.786 40.8363L65.659 40.9612Z" fill="#8A8A8A"/>
<path d="M65.786 117.639H65.913V117.014L65.786 117.639Z" fill="#62ADFF"/>
<path d="M65.786 85.9187H66.167V85.7938L65.786 85.9187Z" fill="#A2A2A2"/>
<path d="M66.0436 117.881C66.3522 118.436 67.0077 118.399 67.564 118.386C69.0667 118.351 71.0717 118.49 72.5146 118.084C73.0428 117.935 73.2709 117.399 73.0576 116.903C72.7676 116.228 71.8426 116.402 71.247 116.388C69.8858 116.355 67.9919 115.867 66.6769 116.209C65.979 116.391 65.7106 117.283 66.0436 117.881Z" fill="#007AFF"/>
<path d="M65.913 75.8032H66.294V75.6783L65.913 75.8032Z" fill="#858585"/>
<path d="M66.04 40.7114L66.167 40.5865L66.04 40.7114Z" fill="#7E7E7E"/>
<path d="M66.1247 29.8052L66.2093 29.7635L66.1247 29.8052Z" fill="#A1A1A1"/>
<path d="M66.294 75.8032H66.675V75.6783L66.294 75.8032Z" fill="#383838"/>
<path d="M66.3787 29.8052L66.4633 29.7635L66.3787 29.8052Z" fill="#565656"/>
<path d="M66.421 40.4617L66.548 40.3368L66.421 40.4617Z" fill="#727272"/>
<path d="M66.548 85.7937H66.929V85.6688L66.548 85.7937Z" fill="#484848"/>
<path d="M66.675 118.513H67.183V118.388L66.675 118.513Z" fill="#97C9FE"/>
<path d="M67.0137 85.7522L67.0983 85.7105L67.0137 85.7522Z" fill="#ACACAC"/>
<path d="M66.929 75.6783H67.31V75.5535L66.929 75.6783Z" fill="#939393"/>
<path d="M66.929 29.7219H68.072V29.597L66.929 29.7219Z" fill="#ADADAD"/>
<path d="M67.056 40.087L67.183 39.9622L67.056 40.087Z" fill="#737373"/>
<path d="M67.183 116.265H67.818V116.14L67.183 116.265Z" fill="#3D99FE"/>
<path d="M67.31 39.9622L67.437 39.8373L67.31 39.9622Z" fill="#939393"/>
<path d="M67.564 85.6688H67.945V85.5439L67.564 85.6688Z" fill="#6B6B6B"/>
<path d="M67.564 39.8373L67.691 39.7124L67.564 39.8373Z" fill="#9C9C9C"/>
<path d="M67.7757 75.5118L67.8603 75.4701L67.7757 75.5118Z" fill="#969696"/>
<path d="M67.818 116.265H68.707V116.14L67.818 116.265Z" fill="#84BEFE"/>
<path d="M67.818 39.7124L67.945 39.5875L67.818 39.7124Z" fill="#959595"/>
<path d="M68.0297 75.5118L68.1143 75.4701L68.0297 75.5118Z" fill="#393939"/>
<path d="M68.072 39.5875L68.199 39.4626L68.072 39.5875Z" fill="#747474"/>
<path d="M68.199 118.388H68.834V118.263L68.199 118.388Z" fill="#3F9BFF"/>
<path d="M68.199 52.9498H69.469V52.825L68.199 52.9498Z" fill="#F9D49F"/>
<path d="M68.326 85.5439H68.707V85.4191L68.326 85.5439Z" fill="#727272"/>
<path d="M68.5377 75.387L68.6223 75.3453L68.5377 75.387Z" fill="#686868"/>
<path d="M68.453 62.1912H69.469V62.0663L68.453 62.1912Z" fill="#FAD8AB"/>
<path d="M68.5377 39.421L68.6223 39.3793L68.5377 39.421Z" fill="#BFBFBF"/>
<path d="M68.834 118.388H69.723V118.263L68.834 118.388Z" fill="#93C5FF"/>
<path d="M68.961 85.4191H69.342V85.2942L68.961 85.4191Z" fill="#606060"/>
<path d="M68.961 39.3378H70.485V39.2129L68.961 39.3378Z" fill="#4D4D4D"/>
<path d="M69.1727 75.2621L69.2573 75.2204L69.1727 75.2621Z" fill="#565656"/>
<path d="M69.2997 29.8052L69.3843 29.7635L69.2997 29.8052Z" fill="#737373"/>
<path d="M69.5537 29.8052L69.6383 29.7635L69.5537 29.8052Z" fill="#A8A8A8"/>
<path d="M69.6807 85.2527L69.7653 85.211L69.6807 85.2527Z" fill="#797979"/>
<path d="M69.6807 75.1372L69.7653 75.0955L69.6807 75.1372Z" fill="#717171"/>
<path d="M69.85 62.0662H70.231V61.9413L69.85 62.0662Z" fill="#F9C989"/>
<path d="M69.9347 53.0332L70.0193 52.9915L69.9347 53.0332Z" fill="#FAD4A3"/>
<path d="M70.1887 75.0123L70.2733 74.9706L70.1887 75.0123Z" fill="#7B7B7B"/>
<path d="M70.3157 85.1278L70.4003 85.0861L70.3157 85.1278Z" fill="#9B9B9B"/>
<path d="M70.231 29.9717H70.612V29.8468L70.231 29.9717Z" fill="#525252"/>
<path d="M70.485 116.39H71.247V116.265L70.485 116.39Z" fill="#6FB3FC"/>
<path d="M70.6967 29.9301L70.7813 29.8883L70.6967 29.9301Z" fill="#B5B5B5"/>
<path d="M70.8237 85.0029L70.9083 84.9612L70.8237 85.0029Z" fill="#9E9E9E"/>
<path d="M70.8237 74.8875L70.9083 74.8457L70.8237 74.8875Z" fill="#3B3B3B"/>
<path d="M70.866 118.263H71.628V118.138L70.866 118.263Z" fill="#74B6FF"/>
<path d="M70.9507 39.421L71.0353 39.3793L70.9507 39.421Z" fill="#585858"/>
<path d="M71.2047 74.7626L71.2893 74.7209L71.2047 74.7626Z" fill="#6F6F6F"/>
<path d="M71.12 30.0966H71.501V29.9717L71.12 30.0966Z" fill="#595959"/>
<path d="M71.247 116.39H72.136V116.265L71.247 116.39Z" fill="#B4D7FD"/>
<path d="M71.3317 84.8781L71.4163 84.8363L71.3317 84.8781Z" fill="#A2A2A2"/>
<path d="M71.628 118.263H72.39V118.138L71.628 118.263Z" fill="#BADAFF"/>
<path d="M71.7127 74.6377L71.7973 74.596L71.7127 74.6377Z" fill="#575757"/>
<path d="M71.628 39.7124L71.755 39.5875L71.628 39.7124Z" fill="#939393"/>
<path d="M71.8397 84.7531L71.9243 84.7113L71.8397 84.7531Z" fill="#C3C3C3"/>
<path d="M71.882 39.8373L72.009 39.7124L71.882 39.8373Z" fill="#A3A3A3"/>
<path d="M71.9667 30.1798L72.0513 30.1381L71.9667 30.1798Z" fill="#8A8A8A"/>
<path d="M72.2207 84.6283L72.3053 84.5866L72.2207 84.6283Z" fill="#9C9C9C"/>
<path d="M72.4747 30.3047L72.5593 30.263L72.4747 30.3047Z" fill="#979797"/>
<path d="M72.6017 74.3879L72.6863 74.3462L72.6017 74.3879Z" fill="#444444"/>
<path d="M72.771 40.2119L72.898 40.087L72.771 40.2119Z" fill="#A4A4A4"/>
<path d="M72.9827 74.2631L73.0673 74.2214L72.9827 74.2631Z" fill="#545454"/>
<path d="M73.1097 84.3784L73.1943 84.3367L73.1097 84.3784Z" fill="#C4C4C4"/>
<path d="M73.152 117.514H73.279V117.014L73.152 117.514Z" fill="#94C7FE"/>
<path d="M73.279 40.3368H73.66V40.2119L73.279 40.3368Z" fill="#5F5F5F"/>
<path d="M73.279 30.5961L73.406 30.4712L73.279 30.5961Z" fill="#838383"/>
<path d="M73.4907 84.2535L73.5753 84.2118L73.4907 84.2535Z" fill="#B7B7B7"/>
<path d="M73.4483 58.6111L73.4907 58.5279L73.4483 58.6111Z" fill="#FCC584"/>
<path d="M73.787 84.1703L73.914 84.0454L73.787 84.1703Z" fill="#696969"/>
<path d="M73.914 30.8458L74.041 30.7209L73.914 30.8458Z" fill="#808080"/>
<path d="M74.041 73.9299L74.168 73.805L74.041 73.9299Z" fill="#A7A7A7"/>
<path d="M74.168 84.0454L74.295 83.9205L74.168 84.0454Z" fill="#757575"/>
<path d="M74.168 30.9707L74.295 30.8458L74.168 30.9707Z" fill="#5F5F5F"/>
<path d="M74.422 73.8051L74.549 73.6802L74.422 73.8051Z" fill="#8F8F8F"/>
<path d="M74.549 83.9205L74.676 83.7957L74.549 83.9205Z" fill="#828282"/>
<path d="M74.803 73.6802L74.93 73.5553L74.803 73.6802Z" fill="#767676"/>
<path d="M74.803 40.3368H75.184V40.2119L74.803 40.3368Z" fill="#787878"/>
<path d="M74.93 31.3453L75.057 31.2205L74.93 31.3453Z" fill="#565656"/>
<path d="M75.184 83.6708L75.311 83.5459L75.184 83.6708Z" fill="#666666"/>
<path d="M75.184 31.4702L75.311 31.3453L75.184 31.4702Z" fill="#717171"/>
<path d="M75.438 73.4305L75.565 73.3057L75.438 73.4305Z" fill="#8B8B8B"/>
<path d="M75.5227 40.1703L75.6073 40.1286L75.5227 40.1703Z" fill="#BEBEBE"/>
<path d="M75.438 31.5951L75.565 31.4702L75.438 31.5951Z" fill="#9A9A9A"/>
<path d="M75.565 83.5459L75.692 83.421L75.565 83.5459Z" fill="#8C8C8C"/>
<path d="M75.819 73.3057L75.946 73.1808L75.819 73.3057Z" fill="#636363"/>
<path d="M75.819 40.087L75.946 39.9622L75.819 40.087Z" fill="#7F7F7F"/>
<path d="M75.819 31.8448L75.946 31.72L75.819 31.8448Z" fill="#878787"/>
<path d="M76.073 73.1807L76.2 73.0558L76.073 73.1807Z" fill="#9F9F9F"/>
<path d="M76.073 39.9622L76.2 39.8373L76.073 39.9622Z" fill="#666666"/>
<path d="M76.2 83.2961L76.327 83.1713L76.2 83.2961Z" fill="#747474"/>
<path d="M76.2 32.0946L76.327 31.9697L76.2 32.0946Z" fill="#A2A2A2"/>
<path d="M76.327 91.2886H76.454V90.789L76.327 91.2886Z" fill="#AFAFAF"/>
<path d="M76.327 90.7889H76.454V89.1655L76.327 90.7889Z" fill="#828282"/>
<path d="M76.327 89.1655H76.454V88.4162L76.327 89.1655Z" fill="#C9C9C9"/>
<path d="M76.327 39.8373L76.454 39.7124L76.327 39.8373Z" fill="#6B6B6B"/>
<path d="M76.327 32.2195L76.454 32.0946L76.327 32.2195Z" fill="#5D5D5D"/>
<path d="M76.454 108.772H76.581V106.899L76.454 108.772Z" fill="#8CC4FF"/>
<path d="M76.4963 91.9546L76.5387 91.8714L76.4963 91.9546Z" fill="#8F8F8F"/>
<path d="M76.454 91.7881H76.581V91.4134L76.454 91.7881Z" fill="#3E3E3E"/>
<path d="M76.454 88.1665H76.581V87.7919L76.454 88.1665Z" fill="#3B3B3B"/>
<path d="M76.4963 87.7085L76.5387 87.6253L76.4963 87.7085Z" fill="#838383"/>
<path d="M76.4963 87.4587L76.5387 87.3756L76.4963 87.4587Z" fill="#C8C8C8"/>
<path d="M76.454 73.0558L76.581 72.9309L76.454 73.0558Z" fill="#727272"/>
<path d="M76.581 112.144H76.708V110.395L76.581 112.144Z" fill="#6DB2FF"/>
<path d="M76.6348 110.395C76.7601 111.333 76.2909 113.35 76.9292 114.088C77.4139 114.647 78.2342 114.299 78.3402 113.642C78.6539 111.696 78.8289 108.844 78.457 106.901C78.3005 106.083 77.0306 105.85 76.6752 106.663C76.2771 107.573 76.5052 109.424 76.6348 110.395Z" fill="#007AFF"/>
<path d="M76.6233 92.4541L76.6657 92.3709L76.6233 92.4541Z" fill="#575757"/>
<path d="M76.581 87.0426H76.708V86.668L76.581 87.0426Z" fill="#6C6C6C"/>
<path d="M76.581 83.1713L76.708 83.0464L76.581 83.1713Z" fill="#A0A0A0"/>
<path d="M76.581 39.7124L76.708 39.5875L76.581 39.7124Z" fill="#A5A5A5"/>
<path d="M76.708 123.009H76.835V121.76L76.708 123.009Z" fill="#70B3FF"/>
<path d="M76.708 121.76H76.835V120.636L76.708 121.76Z" fill="#3295FD"/>
<path d="M76.7503 86.3348L76.7927 86.2517L76.7503 86.3348Z" fill="#878787"/>
<path d="M76.708 72.9309L76.835 72.806L76.708 72.9309Z" fill="#A0A0A0"/>
<path d="M76.835 127.005H76.962V125.381L76.835 127.005Z" fill="#96C7FF"/>
<path d="M76.835 125.381H76.962V124.382L76.835 125.381Z" fill="#4CA1FE"/>
<path d="M76.8889 124.382C76.9668 124.966 76.9617 125.542 76.962 126.131C76.9623 126.884 77.8513 128.767 78.5188 127.241C78.7753 126.654 78.613 125.759 78.613 125.132C78.613 123.719 79.0644 122.023 78.6996 120.638C78.4983 119.873 77.2824 119.592 76.9292 120.4C76.5086 121.361 76.7517 123.355 76.8889 124.382Z" fill="#007AFF"/>
<path d="M76.8773 85.8353L76.9197 85.7522L76.8773 85.8353Z" fill="#ACACAC"/>
<path d="M76.835 83.0464L76.962 82.9215L76.835 83.0464Z" fill="#707070"/>
<path d="M76.835 32.5941L76.962 32.4692L76.835 32.5941Z" fill="#828282"/>
<path d="M76.962 93.6614L77.089 93.5365L76.962 93.6614Z" fill="#979797"/>
<path d="M77.089 93.9111L77.216 93.7863L77.089 93.9111Z" fill="#707070"/>
<path d="M77.089 85.1693L77.216 85.0444L77.089 85.1693Z" fill="#5C5C5C"/>
<path d="M77.089 72.806L77.216 72.6811L77.089 72.806Z" fill="#696969"/>
<path d="M77.216 94.1609L77.343 94.036L77.216 94.1609Z" fill="#626262"/>
<path d="M77.216 84.7947L77.343 84.6698L77.216 84.7947Z" fill="#828282"/>
<path d="M77.216 39.2129L77.343 39.088L77.216 39.2129Z" fill="#A7A7A7"/>
<path d="M77.343 94.4106L77.47 94.2858L77.343 94.4106Z" fill="#585858"/>
<path d="M77.343 84.5449L77.47 84.42L77.343 84.5449Z" fill="#5A5A5A"/>
<path d="M77.343 72.6812L77.47 72.5563L77.343 72.6812Z" fill="#999999"/>
<path d="M77.343 39.0879L77.47 38.963L77.343 39.0879Z" fill="#9F9F9F"/>
<path d="M77.47 82.7966L77.597 82.6717L77.47 82.7966Z" fill="#7D7D7D"/>
<path d="M77.597 94.9102L77.724 94.7853L77.597 94.9102Z" fill="#646464"/>
<path d="M77.597 83.9205L77.724 83.7957L77.597 83.9205Z" fill="#9E9E9E"/>
<path d="M77.597 33.3434L77.724 33.2185L77.597 33.3434Z" fill="#6B6B6B"/>
<path d="M77.724 95.1599L77.851 95.035L77.724 95.1599Z" fill="#787878"/>
<path d="M77.724 83.6708L77.851 83.5459L77.724 83.6708Z" fill="#9E9E9E"/>
<path d="M77.724 72.5563L77.851 72.4314L77.724 72.5563Z" fill="#636363"/>
<path d="M77.724 33.4683L77.851 33.3434L77.724 33.4683Z" fill="#A8A8A8"/>
<path d="M77.851 95.4097L77.978 95.2848L77.851 95.4097Z" fill="#949494"/>
<path d="M77.851 83.421L77.978 83.2961L77.851 83.421Z" fill="#9C9C9C"/>
<path d="M77.851 38.4636L77.978 38.3387L77.851 38.4636Z" fill="#9E9E9E"/>
<path d="M77.978 72.4314L78.105 72.3065L77.978 72.4314Z" fill="#898989"/>
<path d="M77.978 38.2137L78.105 38.0889L77.978 38.2137Z" fill="#6B6B6B"/>
<path d="M77.978 33.843L78.105 33.7181L77.978 33.843Z" fill="#A7A7A7"/>
<path d="M78.105 95.7843L78.232 95.6594L78.105 95.7843Z" fill="#5A5A5A"/>
<path d="M78.105 82.5469L78.232 82.422L78.105 82.5469Z" fill="#8A8A8A"/>
<path d="M78.105 34.0927L78.232 33.9678L78.105 34.0927Z" fill="#939393"/>
<path d="M78.232 96.0341L78.359 95.9092L78.232 96.0341Z" fill="#9E9E9E"/>
<path d="M78.232 82.7966L78.359 82.6717L78.232 82.7966Z" fill="#5B5B5B"/>
<path d="M78.232 37.7144L78.359 37.5895L78.232 37.7144Z" fill="#6E6E6E"/>
<path d="M78.359 113.767H78.486V112.643L78.359 113.767Z" fill="#88BFFF"/>
<path d="M78.359 112.643H78.486V111.27L78.359 112.643Z" fill="#469DFE"/>
<path d="M78.4013 82.4635L78.4437 82.3803L78.4013 82.4635Z" fill="#575757"/>
<path d="M78.486 109.771H78.613V108.023L78.486 109.771Z" fill="#A2CEFF"/>
<path d="M78.486 108.023H78.613V106.899L78.486 108.023Z" fill="#60ADFF"/>
<path d="M78.486 96.4087L78.613 96.2838L78.486 96.4087Z" fill="#9F9F9F"/>
<path d="M78.5283 36.8817L78.5707 36.7985L78.5283 36.8817Z" fill="#636363"/>
<path d="M78.486 35.3416H78.613V34.9669L78.486 35.3416Z" fill="#777777"/>
<path d="M78.613 126.755H78.74V125.631L78.613 126.755Z" fill="#C9E2FF"/>
<path d="M78.613 125.631H78.74V124.632L78.613 125.631Z" fill="#91C5FE"/>
<path d="M78.613 124.632H78.74V123.633L78.613 124.632Z" fill="#51A4FF"/>
<path d="M78.613 36.3406H78.74V35.7162L78.613 36.3406Z" fill="#D6D6D6"/>
<path d="M78.74 121.885H78.867V120.636L78.74 121.885Z" fill="#A9D2FF"/>
<path d="M78.867 96.9082L78.994 96.7833L78.867 96.9082Z" fill="#7B7B7B"/>
<path d="M78.867 72.0568L78.994 71.9319L78.867 72.0568Z" fill="#727272"/>
<path d="M79.121 71.9319L79.248 71.807L79.121 71.9319Z" fill="#808080"/>
<path d="M79.248 97.4077L79.375 97.2828L79.248 97.4077Z" fill="#A4A4A4"/>
<path d="M79.375 97.5326L79.502 97.4077L79.375 97.5326Z" fill="#717171"/>
<path d="M79.375 71.807L79.502 71.6821L79.375 71.807Z" fill="#909090"/>
<path d="M79.629 71.6821L79.756 71.5573L79.629 71.6821Z" fill="#9D9D9D"/>
<path d="M79.883 71.5573L80.01 71.4324L79.883 71.5573Z" fill="#9F9F9F"/>
<path d="M80.01 98.2819L80.137 98.157L80.01 98.2819Z" fill="#989898"/>
<path d="M80.137 98.4069L80.264 98.282L80.137 98.4069Z" fill="#7A7A7A"/>
<path d="M80.137 71.4324L80.264 71.3075L80.137 71.4324Z" fill="#A0A0A0"/>
<path d="M80.264 98.5317L80.391 98.4069L80.264 98.5317Z" fill="#686868"/>
<path d="M80.391 98.6565L80.518 98.5316L80.391 98.6565Z" fill="#5F5F5F"/>
<path d="M80.391 71.3075L80.518 71.1826L80.391 71.3075Z" fill="#A3A3A3"/>
<path d="M80.645 71.1825L80.772 71.0576L80.645 71.1825Z" fill="#9F9F9F"/>
<path d="M80.899 71.0577L81.026 70.9329L80.899 71.0577Z" fill="#989898"/>
<path d="M81.153 70.9329L81.28 70.808L81.153 70.9329Z" fill="#929292"/>
<path d="M81.28 99.5308L81.407 99.4059L81.28 99.5308Z" fill="#575757"/>
<path d="M81.407 115.89H81.534V114.891L81.407 115.89Z" fill="#BCBCBC"/>
<path d="M81.407 99.6556L81.534 99.5308L81.407 99.6556Z" fill="#606060"/>
<path d="M81.407 70.808L81.534 70.6831L81.407 70.808Z" fill="#8A8A8A"/>
<path d="M81.534 116.515H81.661V116.14L81.534 116.515Z" fill="#656565"/>
<path d="M81.534 114.766H81.661V114.392L81.534 114.766Z" fill="#464646"/>
<path d="M81.534 99.7805L81.661 99.6556L81.534 99.7805Z" fill="#6B6B6B"/>
<path d="M81.7033 116.931L81.7457 116.848L81.7033 116.931Z" fill="#4B4B4B"/>
<path d="M81.7033 113.934L81.7457 113.851L81.7033 113.934Z" fill="#B0B0B0"/>
<path d="M81.661 99.9054L81.788 99.7805L81.661 99.9054Z" fill="#868686"/>
<path d="M81.661 70.6831L81.788 70.5582L81.661 70.6831Z" fill="#7C7C7C"/>
<path d="M81.788 117.389L81.915 117.264L81.788 117.389Z" fill="#A0A0A0"/>
<path d="M81.788 113.642L81.915 113.517L81.788 113.642Z" fill="#5D5D5D"/>
<path d="M81.788 100.03L81.915 99.9054L81.788 100.03Z" fill="#A8A8A8"/>
<path d="M81.915 117.639L82.042 117.514L81.915 117.639Z" fill="#737373"/>
<path d="M81.915 113.268L82.042 113.143L81.915 113.268Z" fill="#9F9F9F"/>
<path d="M81.915 70.5582L82.042 70.4333L81.915 70.5582Z" fill="#6B6B6B"/>
<path d="M82.042 117.888L82.169 117.763L82.042 117.888Z" fill="#6A6A6A"/>
<path d="M82.042 113.018L82.169 112.893L82.042 113.018Z" fill="#949494"/>
<path d="M82.169 118.138L82.296 118.013L82.169 118.138Z" fill="#848484"/>
<path d="M82.169 70.4332L82.296 70.3083L82.169 70.4332Z" fill="#5C5C5C"/>
<path d="M82.423 118.513L82.55 118.388L82.423 118.513Z" fill="#6C6C6C"/>
<path d="M82.423 100.53L82.55 100.405L82.423 100.53Z" fill="#656565"/>
<path d="M82.55 112.269L82.677 112.144L82.55 112.269Z" fill="#696969"/>
<path d="M82.55 100.655L82.677 100.53L82.55 100.655Z" fill="#9F9F9F"/>
<path d="M82.804 119.012L82.931 118.887L82.804 119.012Z" fill="#A4A4A4"/>
<path d="M82.804 70.0587L82.931 69.9338L82.804 70.0587Z" fill="#9C9C9C"/>
<path d="M82.931 119.137L83.058 119.012L82.931 119.137Z" fill="#949494"/>
<path d="M83.058 119.262L83.185 119.137L83.058 119.262Z" fill="#878787"/>
<path d="M83.058 101.029L83.185 100.904L83.058 101.029Z" fill="#868686"/>
<path d="M83.058 69.9337L83.185 69.8088L83.058 69.9337Z" fill="#7F7F7F"/>
<path d="M83.185 119.387L83.312 119.262L83.185 119.387Z" fill="#9E9E9E"/>
<path d="M83.312 111.395L83.439 111.27L83.312 111.395Z" fill="#9C9C9C"/>
<path d="M83.312 69.8088L83.439 69.684L83.312 69.8088Z" fill="#5F5F5F"/>
<path d="M83.439 111.27L83.566 111.145L83.439 111.27Z" fill="#898989"/>
<path d="M83.439 101.279L83.566 101.154L83.439 101.279Z" fill="#636363"/>
<path d="M83.566 111.145L83.693 111.02L83.566 111.145Z" fill="#737373"/>
<path d="M83.693 119.762L83.82 119.637L83.693 119.762Z" fill="#636363"/>
<path d="M83.693 69.5592L83.82 69.4343L83.693 69.5592Z" fill="#9B9B9B"/>
<path d="M83.947 101.654L84.074 101.529L83.947 101.654Z" fill="#919191"/>
<path d="M83.947 69.4342L84.074 69.3093L83.947 69.4342Z" fill="#6D6D6D"/>
<path d="M84.074 120.011L84.201 119.886L84.074 120.011Z" fill="#6C6C6C"/>
<path d="M84.201 110.396L84.328 110.271L84.201 110.396Z" fill="#8F8F8F"/>
<path d="M84.328 110.271L84.455 110.146L84.328 110.271Z" fill="#606060"/>
<path d="M84.328 101.903L84.455 101.779L84.328 101.903Z" fill="#7E7E7E"/>
<path d="M84.328 69.1844L84.455 69.0596L84.328 69.1844Z" fill="#A1A1A1"/>
<path d="M84.582 69.0596L84.709 68.9347L84.582 69.0596Z" fill="#5F5F5F"/>
<path d="M84.709 109.771L84.836 109.646L84.709 109.771Z" fill="#9E9E9E"/>
<path d="M84.709 102.153L84.836 102.028L84.709 102.153Z" fill="#838383"/>
<path d="M84.836 120.386L84.963 120.261L84.836 120.386Z" fill="#737373"/>
<path d="M84.836 109.646L84.963 109.521L84.836 109.646Z" fill="#6C6C6C"/>
<path d="M84.963 68.8098L85.09 68.6849L84.963 68.8098Z" fill="#7F7F7F"/>
<path d="M85.09 102.403L85.217 102.278L85.09 102.403Z" fill="#A1A1A1"/>
<path d="M85.217 109.147L85.344 109.022L85.217 109.147Z" fill="#9C9C9C"/>
<path d="M85.344 109.022L85.471 108.897L85.344 109.022Z" fill="#666666"/>
<path d="M85.344 102.528L85.471 102.403L85.344 102.528Z" fill="#626262"/>
<path d="M85.344 68.5601L85.471 68.4352L85.344 68.5601Z" fill="#949494"/>
<path d="M85.6827 120.594L85.7673 120.552L85.6827 120.594Z" fill="#626262"/>
<path d="M85.725 108.522L85.852 108.397L85.725 108.522Z" fill="#898989"/>
<path d="M85.725 102.778L85.852 102.653L85.725 102.778Z" fill="#767676"/>
<path d="M85.725 68.3103L85.852 68.1854L85.725 68.3103Z" fill="#A2A2A2"/>
<path d="M85.979 68.1854L86.106 68.0605L85.979 68.1854Z" fill="#575757"/>
<path d="M86.106 108.023L86.233 107.898L86.106 108.023Z" fill="#999999"/>
<path d="M86.106 103.027L86.233 102.903L86.106 103.027Z" fill="#828282"/>
<path d="M86.233 120.761H87.503V120.636L86.233 120.761Z" fill="#8C8C8C"/>
<path d="M86.233 107.898L86.36 107.773L86.233 107.898Z" fill="#585858"/>
<path d="M86.36 67.9357L86.487 67.8108L86.36 67.9357Z" fill="#5F5F5F"/>
<path d="M86.487 107.523L86.614 107.398L86.487 107.523Z" fill="#969696"/>
<path d="M86.487 103.277L86.614 103.152L86.487 103.277Z" fill="#636363"/>
<path d="M86.741 89.9149H86.868V89.0407L86.741 89.9149Z" fill="#B2B2B2"/>
<path d="M86.741 89.0408H86.868V88.6661L86.741 89.0408Z" fill="#676767"/>
<path d="M86.868 107.024L86.995 106.899L86.868 107.024Z" fill="#737373"/>
<path d="M86.868 88.4163L86.995 88.2914L86.868 88.4163Z" fill="#838383"/>
<path d="M86.868 67.561L86.995 67.4362L86.868 67.561Z" fill="#A3A3A3"/>
<path d="M86.995 103.652L87.122 103.527L86.995 103.652Z" fill="#727272"/>
<path d="M86.995 90.2896L87.122 90.1647L86.995 90.2896Z" fill="#A3A3A3"/>
<path d="M87.122 106.649L87.249 106.524L87.122 106.649Z" fill="#666666"/>
<path d="M87.249 106.399L87.376 106.274L87.249 106.399Z" fill="#9F9F9F"/>
<path d="M87.249 90.6642L87.376 90.5393L87.249 90.6642Z" fill="#888888"/>
<path d="M87.249 67.3113L87.376 67.1864L87.249 67.3113Z" fill="#6F6F6F"/>
<path d="M87.376 87.4172L87.503 87.2924L87.376 87.4172Z" fill="#919191"/>
<path d="M87.503 87.1675L87.63 87.0426L87.503 87.1675Z" fill="#656565"/>
<path d="M87.63 105.65L87.757 105.525L87.63 105.65Z" fill="#7A7A7A"/>
<path d="M87.7993 105.192L87.8417 105.109L87.7993 105.192Z" fill="#ADADAD"/>
<path d="M87.757 104.651H87.884V104.276L87.757 104.651Z" fill="#B2B2B2"/>
<path d="M87.757 86.7928L87.884 86.668L87.757 86.7928Z" fill="#818181"/>
<path d="M87.757 66.9366L87.884 66.8118L87.757 66.9366Z" fill="#686868"/>
<path d="M87.9687 120.594L88.0533 120.552L87.9687 120.594Z" fill="#8F8F8F"/>
<path d="M87.884 66.8118L88.011 66.6869L87.884 66.8118Z" fill="#A5A5A5"/>
<path d="M88.011 91.5383L88.138 91.4134L88.011 91.5383Z" fill="#5A5A5A"/>
<path d="M88.011 86.4182L88.138 86.2933L88.011 86.4182Z" fill="#858585"/>
<path d="M88.138 91.6632L88.265 91.5383L88.138 91.6632Z" fill="#616161"/>
<path d="M88.265 91.7881L88.392 91.6632L88.265 91.7881Z" fill="#626262"/>
<path d="M88.265 86.0436L88.392 85.9187L88.265 86.0436Z" fill="#676767"/>
<path d="M88.392 120.511L88.519 120.386L88.392 120.511ZM88.392 91.9129L88.519 91.7881L88.392 91.9129Z" fill="#585858"/>
<path d="M88.519 66.437L88.646 66.3121L88.519 66.437Z" fill="#858585"/>
<path d="M88.646 85.5439L88.773 85.4191L88.646 85.5439Z" fill="#8E8E8E"/>
<path d="M88.773 120.386L88.9 120.261L88.773 120.386Z" fill="#6B6B6B"/>
<path d="M88.773 66.3121L88.9 66.1873L88.773 66.3121Z" fill="#8A8A8A"/>
<path d="M89.027 85.0444L89.154 84.9196L89.027 85.0444Z" fill="#7C7C7C"/>
<path d="M89.154 92.5374L89.281 92.4125L89.154 92.5374Z" fill="#808080"/>
<path d="M89.154 84.9196L89.281 84.7947L89.154 84.9196Z" fill="#A9A9A9"/>
<path d="M89.535 120.011L89.662 119.886L89.535 120.011Z" fill="#575757"/>
<path d="M89.6197 66.0209L89.7043 65.9792L89.6197 66.0209Z" fill="#505050"/>
<path d="M89.662 92.9121L89.789 92.7872L89.662 92.9121ZM89.662 84.2953L89.789 84.1704L89.662 84.2953Z" fill="#696969"/>
<path d="M89.789 119.886L89.916 119.762L89.789 119.886Z" fill="#919191"/>
<path d="M89.789 84.1703L89.916 84.0454L89.789 84.1703Z" fill="#8D8D8D"/>
<path d="M90.043 93.1617L90.17 93.0369L90.043 93.1617Z" fill="#8C8C8C"/>
<path d="M90.043 65.9375H91.059V65.8126L90.043 65.9375Z" fill="#999999"/>
<path d="M90.297 119.512L90.424 119.387L90.297 119.512Z" fill="#949494"/>
<path d="M90.424 119.387L90.551 119.262L90.424 119.387Z" fill="#818181"/>
<path d="M90.424 93.4115L90.551 93.2866L90.424 93.4115Z" fill="#9D9D9D"/>
<path d="M90.551 119.262L90.678 119.137L90.551 119.262Z" fill="#707070"/>
<path d="M90.551 83.2961L90.678 83.1713L90.551 83.2961Z" fill="#676767"/>
<path d="M90.678 119.137L90.805 119.012L90.678 119.137Z" fill="#666666"/>
<path d="M90.678 83.1713L90.805 83.0464L90.678 83.1713Z" fill="#848484"/>
<path d="M90.805 119.012L90.932 118.887L90.805 119.012Z" fill="#797979"/>
<path d="M90.805 83.0464L90.932 82.9215L90.805 83.0464Z" fill="#A0A0A0"/>
<path d="M90.932 118.887L91.059 118.763L90.932 118.887Z" fill="#969696"/>
<path d="M90.932 93.7863L91.059 93.6614L90.932 93.7863Z" fill="#595959"/>
<path d="M91.313 94.0359L91.44 93.911L91.313 94.0359Z" fill="#6B6B6B"/>
<path d="M91.44 118.263L91.567 118.138L91.44 118.263Z" fill="#787878"/>
<path d="M91.5247 66.0209L91.6093 65.9792L91.5247 66.0209Z" fill="#868686"/>
<path d="M91.567 118.138L91.694 118.013L91.567 118.138Z" fill="#A4A4A4"/>
<path d="M91.567 82.1721L91.694 82.0473L91.567 82.1721Z" fill="#5A5A5A"/>
<path d="M91.694 94.2858L91.821 94.1609L91.694 94.2858Z" fill="#8B8B8B"/>
<path d="M91.694 82.0474L91.821 81.9225L91.694 82.0474Z" fill="#727272"/>
<path d="M91.821 81.9224L91.948 81.7975L91.821 81.9224ZM91.948 117.639L92.075 117.514L91.948 117.639Z" fill="#8D8D8D"/>
<path d="M91.948 81.7975L92.075 81.6726L91.948 81.7975Z" fill="#A4A4A4"/>
<path d="M91.948 66.1873H92.329V66.0624L91.948 66.1873Z" fill="#999999"/>
<path d="M92.202 94.6604L92.329 94.5355L92.202 94.6604Z" fill="#858585"/>
<path d="M92.329 117.139L92.456 117.014L92.329 117.139Z" fill="#818181"/>
<path d="M92.456 66.3121L92.583 66.1873L92.456 66.3121Z" fill="#656565"/>
<path d="M92.71 116.64L92.837 116.515L92.71 116.64Z" fill="#9B9B9B"/>
<path d="M92.71 95.035L92.837 94.9102L92.71 95.035Z" fill="#A6A6A6"/>
<path d="M92.71 80.9233L92.837 80.7985L92.71 80.9233Z" fill="#606060"/>
<path d="M92.71 66.437L92.837 66.3121L92.71 66.437Z" fill="#676767"/>
<path d="M92.837 95.1599L92.964 95.035L92.837 95.1599Z" fill="#797979"/>
<path d="M92.837 80.7985L92.964 80.6736L92.837 80.7985Z" fill="#7E7E7E"/>
<path d="M92.964 116.265L93.091 116.14L92.964 116.265Z" fill="#707070"/>
<path d="M92.964 80.6736L93.091 80.5487L92.964 80.6736Z" fill="#989898"/>
<path d="M92.964 66.562L93.091 66.4371L92.964 66.562Z" fill="#919191"/>
<path d="M93.345 115.765L93.472 115.64L93.345 115.765Z" fill="#9E9E9E"/>
<path d="M93.472 95.6594L93.599 95.5345L93.472 95.6594Z" fill="#A3A3A3"/>
<path d="M93.472 66.9366L93.599 66.8118L93.472 66.9366Z" fill="#7D7D7D"/>
<path d="M93.599 115.391L93.726 115.266L93.599 115.391Z" fill="#838383"/>
<path d="M93.599 95.7843L93.726 95.6594L93.599 95.7843Z" fill="#808080"/>
<path d="M93.599 67.0615L93.726 66.9366L93.599 67.0615Z" fill="#646464"/>
<path d="M93.726 95.9092L93.853 95.7843L93.726 95.9092Z" fill="#5D5D5D"/>
<path d="M93.726 79.7994L93.853 79.6746L93.726 79.7994Z" fill="#727272"/>
<path d="M93.726 67.1864L93.853 67.0615L93.726 67.1864Z" fill="#575757"/>
<path d="M93.853 115.016L93.98 114.891L93.853 115.016Z" fill="#6C6C6C"/>
<path d="M93.853 79.6746L93.98 79.5497L93.853 79.6746Z" fill="#989898"/>
<path d="M93.853 67.3113L93.98 67.1864L93.853 67.3113Z" fill="#666666"/>
<path d="M93.98 67.4362L94.107 67.3113L93.98 67.4362Z" fill="#7D7D7D"/>
<path d="M94.234 114.517L94.361 114.392L94.234 114.517Z" fill="#A4A4A4"/>
<path d="M94.488 114.142L94.615 114.017L94.488 114.142Z" fill="#989898"/>
<path d="M94.488 78.9252L94.615 78.8003L94.488 78.9252Z" fill="#787878"/>
<path d="M94.488 67.9357L94.615 67.8108L94.488 67.9357Z" fill="#A5A5A5"/>
<path d="M94.615 78.8004L94.742 78.6755L94.615 78.8004Z" fill="#A4A4A4"/>
<path d="M94.615 68.0605L94.742 67.9357L94.615 68.0605Z" fill="#999999"/>
<path d="M94.742 113.767L94.869 113.642L94.742 113.767Z" fill="#939393"/>
<path d="M94.742 68.1854L94.869 68.0605L94.742 68.1854Z" fill="#9E9E9E"/>
<path d="M94.996 113.393L95.123 113.268L94.996 113.393Z" fill="#8F8F8F"/>
<path d="M94.996 78.3008L95.123 78.1759L94.996 78.3008Z" fill="#6E6E6E"/>
<path d="M95.123 78.176L95.25 78.0512L95.123 78.176Z" fill="#A8A8A8"/>
<path d="M95.25 113.018L95.377 112.893L95.25 113.018Z" fill="#A5A5A5"/>
<path d="M95.25 68.8098L95.377 68.6849L95.25 68.8098Z" fill="#5C5C5C"/>
<path d="M95.377 112.768L95.504 112.643L95.377 112.768Z" fill="#5F5F5F"/>
<path d="M95.377 97.5326L95.504 97.4077L95.377 97.5326Z" fill="#565656"/>
<path d="M95.377 77.8013L95.504 77.6764L95.377 77.8013Z" fill="#747474"/>
<path d="M95.377 68.9347L95.504 68.8098L95.377 68.9347Z" fill="#A7A7A7"/>
<path d="M95.504 97.6575L95.631 97.5326L95.504 97.6575Z" fill="#7C7C7C"/>
<path d="M95.631 112.394L95.758 112.269L95.631 112.394Z" fill="#7D7D7D"/>
<path d="M95.631 97.7825L95.758 97.6576L95.631 97.7825Z" fill="#A4A4A4"/>
<path d="M95.631 77.4268L95.758 77.3019L95.631 77.4268Z" fill="#6B6B6B"/>
<path d="M95.758 69.5592L95.885 69.4343L95.758 69.5592Z" fill="#7F7F7F"/>
<path d="M95.885 77.052L96.012 76.9271L95.885 77.052Z" fill="#9D9D9D"/>
<path d="M95.885 69.8088L96.012 69.684L95.885 69.8088Z" fill="#737373"/>
<path d="M96.012 111.769L96.139 111.644L96.012 111.769Z" fill="#8F8F8F"/>
<path d="M96.012 98.2819L96.139 98.157L96.012 98.2819Z" fill="#969696"/>
<path d="M96.012 76.8022L96.139 76.6774L96.012 76.8022Z" fill="#909090"/>
<path d="M96.012 70.0587L96.139 69.9338L96.012 70.0587Z" fill="#767676"/>
<path d="M96.139 111.519L96.266 111.395L96.139 111.519Z" fill="#626262"/>
<path d="M96.139 76.5525L96.266 76.4276L96.139 76.5525Z" fill="#9E9E9E"/>
<path d="M96.139 70.3085L96.266 70.1836L96.139 70.3085Z" fill="#9B9B9B"/>
<path d="M96.266 98.6565L96.393 98.5316L96.266 98.6565Z" fill="#888888"/>
<path d="M96.266 76.1779L96.393 76.053L96.266 76.1779Z" fill="#646464"/>
<path d="M96.266 70.6831L96.393 70.5582L96.266 70.6831Z" fill="#727272"/>
<path d="M96.4353 75.8447L96.4777 75.7616L96.4353 75.8447Z" fill="#555555"/>
<path d="M96.4353 70.9744L96.4777 70.8912L96.4353 70.9744Z" fill="#C5C5C5"/>
<path d="M96.52 99.0312L96.647 98.9064L96.52 99.0312Z" fill="#A9A9A9"/>
<path d="M96.5623 75.3453L96.6047 75.2622L96.5623 75.3453Z" fill="#353535"/>
<path d="M96.5623 71.4739L96.6047 71.3907L96.5623 71.4739Z" fill="#A2A2A2"/>
<path d="M96.647 99.281L96.774 99.1561L96.647 99.281Z" fill="#818181"/>
<path d="M96.6893 74.8457L96.7317 74.7625L96.6893 74.8457Z" fill="#606060"/>
<path d="M96.647 72.3065H96.774V71.9319L96.647 72.3065Z" fill="#686868"/>
<path d="M96.774 110.271L96.901 110.146L96.774 110.271Z" fill="#606060"/>
<path d="M96.774 99.5308L96.901 99.4059L96.774 99.5308Z" fill="#737373"/>
<path d="M96.774 74.3047H96.901V72.931L96.774 74.3047Z" fill="#919191"/>
<path d="M96.901 110.021L97.028 109.896L96.901 110.021Z" fill="#797979"/>
<path d="M96.901 99.7805L97.028 99.6556L96.901 99.7805Z" fill="#757575"/>
<path d="M97.028 109.771L97.155 109.646L97.028 109.771Z" fill="#9A9A9A"/>
<path d="M97.028 100.03L97.155 99.9054L97.028 100.03Z" fill="#898989"/>
<path d="M97.155 109.396L97.282 109.272L97.155 109.396Z" fill="#6A6A6A"/>
<path d="M97.282 100.655L97.409 100.53L97.282 100.655Z" fill="#8D8D8D"/>
<path d="M97.4513 108.689L97.4937 108.606L97.4513 108.689Z" fill="#535353"/>
<path d="M97.409 101.029L97.536 100.904L97.409 101.029Z" fill="#878787"/>
<path d="M97.5783 101.446L97.6207 101.362L97.5783 101.446Z" fill="#9B9B9B"/>
<path d="M97.7053 107.815L97.7477 107.731L97.7053 107.815Z" fill="#666666"/>
<path d="M97.7053 101.945L97.7477 101.862L97.7053 101.945Z" fill="#828282"/>
<path d="M97.8323 107.315L97.8747 107.232L97.8323 107.315Z" fill="#717171"/>
<path d="M97.79 102.653H97.917V102.278L97.79 102.653Z" fill="#6C6C6C"/>
<path d="M97.9593 106.691L98.0017 106.607L97.9593 106.691Z" fill="#838383"/>
<path d="M97.9593 106.441L98.0017 106.358L97.9593 106.441Z" fill="#3A3A3A"/>
<path d="M97.9593 103.693L98.0017 103.61L97.9593 103.693Z" fill="#3F3F3F"/>
<path d="M97.917 103.527H98.044V103.152L97.917 103.527Z" fill="#737373"/>
<path d="M98.044 106.025H98.171V104.776L98.044 106.025Z" fill="#8C8C8C"/>
<path d="M98.044 104.776H98.171V104.151L98.044 104.776Z" fill="#CACACA"/>
</g>
<defs>
<clipPath id="clip0">
<rect width="132" height="127" fill="white" transform="translate(0 132) rotate(-90)"/>
</clipPath>
</defs>
</svg>
