<svg width="130" height="130" viewBox="0 0 130 130" fill="none" xmlns="http://www.w3.org/2000/svg">
<path d="M94.3312 29.223C98.8 29.223 102.456 32.8793 102.456 37.348V95.848C102.456 100.317 98.8 103.973 94.3312 103.973H35.8312C31.3625 103.973 27.7063 100.317 27.7063 95.848V37.348C27.7063 32.8793 31.3625 29.223 35.8312 29.223H94.3312ZM94.3312 21.098H35.8312C26.8667 21.098 19.5813 28.3834 19.5813 37.348V95.848C19.5813 104.813 26.8667 112.098 35.8312 112.098H94.3312C103.296 112.098 110.581 104.813 110.581 95.848V37.348C110.581 28.3564 103.323 21.098 94.3312 21.098Z" fill="#222831"/>
<path d="M75.6708 45.175C81.6562 45.175 86.5041 50.0229 86.5041 56.0084V77.1333C86.5041 83.1188 81.6562 87.9667 75.6708 87.9667H54.5458C48.5604 87.9667 43.7125 83.1188 43.7125 77.1333V56.0084C43.7125 50.0229 48.5604 45.175 54.5458 45.175H75.6708ZM75.6708 39.7584H54.5458C45.5812 39.7584 38.2958 47.0438 38.2958 56.0084V77.1333C38.2958 86.0979 45.5812 93.3833 54.5458 93.3833H75.6708C84.6354 93.3833 91.9208 86.0979 91.9208 77.1333V56.0084C91.9208 47.0438 84.6354 39.7584 75.6708 39.7584ZM45.0395 25.2688C43.55 25.2688 42.3312 24.05 42.3312 22.5604V9.26253C42.3312 7.77295 43.55 6.5542 45.0395 6.5542C46.5291 6.5542 47.7479 7.77295 47.7479 9.26253V22.5605C47.7479 24.0501 46.5291 25.2688 45.0395 25.2688V25.2688ZM45.0395 126.615C43.55 126.615 42.3312 125.396 42.3312 123.906V106.356C42.3312 104.867 43.55 103.648 45.0395 103.648C46.5291 103.648 47.7479 104.867 47.7479 106.356V123.906C47.7479 125.396 46.5291 126.615 45.0395 126.615ZM85.15 126.615C83.6604 126.615 82.4417 125.396 82.4417 123.906V108.496C82.4417 107.006 83.6604 105.787 85.15 105.787C86.6396 105.787 87.8583 107.006 87.8583 108.496V123.906C87.8583 125.396 86.6396 126.615 85.15 126.615ZM85.15 25.2688C83.6604 25.2688 82.4417 24.05 82.4417 22.5604V9.26253C82.4417 7.77295 83.6604 6.5542 85.15 6.5542C86.6396 6.5542 87.8583 7.77295 87.8583 9.26253V22.5605C87.8583 24.0501 86.6396 25.2688 85.15 25.2688V25.2688Z" fill="#222831"/>
<path d="M121.875 49.2375H108.577C107.087 49.2375 105.869 48.0187 105.869 46.5291C105.869 45.0396 107.087 43.8208 108.577 43.8208H121.875C123.365 43.8208 124.583 45.0396 124.583 46.5291C124.583 48.0187 123.365 49.2375 121.875 49.2375ZM24.7812 49.2375H7.23124C5.74166 49.2375 4.52291 48.0187 4.52291 46.5291C4.52291 45.0396 5.74166 43.8208 7.23124 43.8208H24.7812C26.2708 43.8208 27.4896 45.0396 27.4896 46.5291C27.4896 48.0187 26.2979 49.2375 24.7812 49.2375ZM22.6417 89.3479H7.23124C5.74166 89.3479 4.52291 88.1292 4.52291 86.6396C4.52291 85.15 5.74166 83.9313 7.23124 83.9313H22.6417C24.1313 83.9313 25.35 85.15 25.35 86.6396C25.35 88.1292 24.1313 89.3479 22.6417 89.3479ZM121.875 89.3479H108.577C107.087 89.3479 105.869 88.1292 105.869 86.6396C105.869 85.15 107.087 83.9313 108.577 83.9313H121.875C123.365 83.9313 124.583 85.15 124.583 86.6396C124.583 88.1292 123.365 89.3479 121.875 89.3479Z" fill="#222831"/>
</svg>
