<svg width="317" height="160" viewBox="0 0 317 160" fill="none" xmlns="http://www.w3.org/2000/svg">
<path d="M11.55 94.4C13.23 93.6067 14.7 93.1167 15.96 92.93C17.2667 92.6967 18.5267 92.58 19.74 92.58C21 92.58 22.26 92.6967 23.52 92.93C24.78 93.1167 26.1567 93.56 27.65 94.26C29.19 94.9133 30.5667 95.7767 31.78 96.85C32.9933 97.8767 34.0667 99.3233 35 101.19C35.9333 103.01 36.5167 105.133 36.75 107.56C36.75 108.587 36.2833 109.1 35.35 109.1H34.72C33.88 109.1 33.4133 108.68 33.32 107.84C33.0867 105.88 32.5967 104.153 31.85 102.66C31.1033 101.167 30.24 100.023 29.26 99.23C28.28 98.4367 27.16 97.7833 25.9 97.27C24.0333 96.4767 22.2833 96.08 20.65 96.08C19.0633 96.08 17.7333 96.1733 16.66 96.36C15.6333 96.5467 14.4667 96.9433 13.16 97.55C11.8533 98.1567 10.71 98.9733 9.73 100C8.75 100.98 7.91 102.38 7.21 104.2C6.55667 106.02 6.23 108.12 6.23 110.5V124.22C6.23 126.6 6.58 128.7 7.28 130.52C7.98 132.34 8.82 133.763 9.8 134.79C10.78 135.77 11.9233 136.563 13.23 137.17C14.5833 137.777 15.7733 138.173 16.8 138.36C17.8267 138.547 18.8533 138.64 19.88 138.64C20.9067 138.64 21.9333 138.57 22.96 138.43C23.9867 138.243 25.1533 137.87 26.46 137.31C27.7667 136.703 28.91 135.933 29.89 135C30.87 134.02 31.6867 132.667 32.34 130.94C33.04 129.213 33.39 127.207 33.39 124.92V120.86H21.84C20.9067 120.86 20.44 120.393 20.44 119.46V118.83C20.44 118.457 20.5567 118.13 20.79 117.85C21.07 117.57 21.42 117.43 21.84 117.43H34.02C35.8867 117.43 36.82 118.433 36.82 120.44V124.99C36.82 127.837 36.3767 130.357 35.49 132.55C34.65 134.697 33.6233 136.353 32.41 137.52C31.1967 138.687 29.7733 139.62 28.14 140.32C25.48 141.487 22.7267 142.07 19.88 142.07C16.8933 142.07 14.3267 141.557 12.18 140.53C10.08 139.503 8.4 138.383 7.14 137.17C5.92667 135.957 4.9 134.253 4.06 132.06C3.22 129.82 2.8 127.277 2.8 124.43V110.22C2.8 107.28 3.22 104.69 4.06 102.45C4.94667 100.21 5.99667 98.5067 7.21 97.34C8.47 96.1267 9.91667 95.1467 11.55 94.4ZM49.5638 93H73.9938C74.3672 93 74.6938 93.14 74.9738 93.42C75.2538 93.7 75.3938 94.0267 75.3938 94.4V95.03C75.3938 95.45 75.2538 95.8 74.9738 96.08C74.6938 96.3133 74.3672 96.43 73.9938 96.43H50.2638V138.57H73.9938C74.3672 138.57 74.6938 138.71 74.9738 138.99C75.2538 139.223 75.3938 139.55 75.3938 139.97V140.6C75.3938 140.973 75.2538 141.3 74.9738 141.58C74.6938 141.86 74.3672 142 73.9938 142H49.4938C48.3738 142 47.6272 141.767 47.2538 141.3C46.9272 140.787 46.7638 140.087 46.7638 139.2V95.73C46.7638 94.7967 46.9738 94.12 47.3938 93.7C47.8138 93.2333 48.5372 93 49.5638 93ZM54.4638 114.84H69.4438C69.8638 114.84 70.1905 114.98 70.4238 115.26C70.7038 115.54 70.8438 115.867 70.8438 116.24V116.87C70.8438 117.803 70.3772 118.27 69.4438 118.27H54.4638C53.5305 118.27 53.0638 117.803 53.0638 116.87V116.24C53.0638 115.867 53.1805 115.54 53.4138 115.26C53.6938 114.98 54.0438 114.84 54.4638 114.84ZM86.3138 93H110.744C111.117 93 111.444 93.14 111.724 93.42C112.004 93.7 112.144 94.0267 112.144 94.4V95.03C112.144 95.45 112.004 95.8 111.724 96.08C111.444 96.3133 111.117 96.43 110.744 96.43H87.0138V138.57H110.744C111.117 138.57 111.444 138.71 111.724 138.99C112.004 139.223 112.144 139.55 112.144 139.97V140.6C112.144 140.973 112.004 141.3 111.724 141.58C111.444 141.86 111.117 142 110.744 142H86.2438C85.1238 142 84.3772 141.767 84.0038 141.3C83.6772 140.787 83.5138 140.087 83.5138 139.2V95.73C83.5138 94.7967 83.7238 94.12 84.1438 93.7C84.5638 93.2333 85.2872 93 86.3138 93ZM91.2138 114.84H106.194C106.614 114.84 106.94 114.98 107.174 115.26C107.454 115.54 107.594 115.867 107.594 116.24V116.87C107.594 117.803 107.127 118.27 106.194 118.27H91.2138C90.2805 118.27 89.8138 117.803 89.8138 116.87V116.24C89.8138 115.867 89.9305 115.54 90.1638 115.26C90.4438 114.98 90.7938 114.84 91.2138 114.84ZM127.474 94.4C129.154 93.6067 130.624 93.1167 131.884 92.93C133.19 92.6967 134.45 92.58 135.664 92.58C136.924 92.58 138.184 92.6967 139.444 92.93C140.704 93.1167 142.08 93.56 143.574 94.26C145.114 94.9133 146.49 95.7767 147.704 96.85C148.917 97.8767 149.99 99.3233 150.924 101.19C151.857 103.01 152.44 105.133 152.674 107.56C152.674 108.587 152.207 109.1 151.274 109.1H150.644C149.804 109.1 149.337 108.68 149.244 107.84C149.01 105.88 148.52 104.153 147.774 102.66C147.027 101.167 146.164 100.023 145.184 99.23C144.204 98.4367 143.084 97.7833 141.824 97.27C139.957 96.4767 138.207 96.08 136.574 96.08C134.987 96.08 133.657 96.1733 132.584 96.36C131.557 96.5467 130.39 96.9433 129.084 97.55C127.777 98.1567 126.634 98.9733 125.654 100C124.674 100.98 123.834 102.38 123.134 104.2C122.48 106.02 122.154 108.12 122.154 110.5V124.22C122.154 126.6 122.527 128.7 123.274 130.52C124.02 132.34 124.907 133.763 125.934 134.79C127.007 135.77 128.244 136.563 129.644 137.17C131.884 138.15 133.984 138.64 135.944 138.64C137.904 138.64 139.56 138.477 140.914 138.15C142.314 137.777 143.69 137.147 145.044 136.26C147.937 134.44 149.384 131.057 149.384 126.11C149.384 125.317 149.5 124.803 149.734 124.57C150.014 124.337 150.364 124.22 150.784 124.22H151.344C152.277 124.22 152.744 124.687 152.744 125.62C152.744 128.467 152.277 130.963 151.344 133.11C150.457 135.257 149.407 136.89 148.194 138.01C146.98 139.083 145.557 139.947 143.924 140.6C141.404 141.58 139.187 142.07 137.274 142.07C135.407 142.07 133.774 141.953 132.374 141.72C131.02 141.487 129.48 140.973 127.754 140.18C126.074 139.387 124.58 138.383 123.274 137.17C122.014 135.957 120.94 134.253 120.054 132.06C119.167 129.82 118.724 127.277 118.724 124.43V110.22C118.724 107.28 119.144 104.69 119.984 102.45C120.87 100.21 121.92 98.5067 123.134 97.34C124.394 96.1267 125.84 95.1467 127.474 94.4ZM163.136 104.13C163.136 101.097 164.372 98.46 166.846 96.22C169.319 93.98 172.679 92.86 176.926 92.86C181.219 92.86 184.812 94.0033 187.706 96.29C190.646 98.53 192.209 101.89 192.396 106.37C192.396 106.743 192.256 107.093 191.976 107.42C191.696 107.7 191.369 107.84 190.996 107.84H190.296C189.969 107.84 189.666 107.723 189.386 107.49C189.106 107.21 188.942 106.883 188.896 106.51C188.756 102.963 187.566 100.397 185.326 98.81C183.086 97.1767 180.402 96.36 177.276 96.36C173.916 96.36 171.302 97.13 169.436 98.67C167.569 100.21 166.636 102.123 166.636 104.41C166.636 106.65 167.289 108.447 168.596 109.8C170.416 111.62 173.799 113.487 178.746 115.4C184.626 117.733 188.546 120.067 190.506 122.4C191.999 124.173 192.746 126.717 192.746 130.03C192.746 133.343 191.392 136.19 188.686 138.57C186.026 140.903 182.222 142.07 177.276 142.07C173.589 142.07 170.112 141.067 166.846 139.06C165.119 137.987 163.696 136.493 162.576 134.58C161.502 132.62 160.919 130.38 160.826 127.86C160.826 126.88 161.292 126.39 162.226 126.39H162.856C163.696 126.39 164.162 126.833 164.256 127.72C164.349 129.773 164.862 131.57 165.796 133.11C166.729 134.603 167.896 135.723 169.296 136.47C172.002 137.917 174.966 138.64 178.186 138.64C181.452 138.64 184.112 137.8 186.166 136.12C188.266 134.393 189.316 132.247 189.316 129.68C189.316 127.067 188.476 125.06 186.796 123.66C185.442 122.54 183.972 121.583 182.386 120.79C180.332 119.81 177.112 118.433 172.726 116.66C169.366 115.167 166.916 113.463 165.376 111.55C163.882 109.59 163.136 107.117 163.136 104.13Z" fill="black"/>
<g clip-path="url(#clip0)">
<path d="M222.625 84.9915L223.206 135.319C223.237 137.961 225.404 140.079 228.046 140.048C229.179 140.035 230.27 139.621 231.125 138.879L243.37 128.265L255.855 149.89C257.176 152.179 260.103 152.963 262.391 151.642L267.638 148.613C269.926 147.292 270.71 144.365 269.389 142.076L256.904 120.451L272.229 115.151C274.726 114.287 276.05 111.562 275.187 109.064C274.817 107.995 274.081 107.092 273.108 106.514L229.854 80.8222C227.582 79.4726 224.646 80.2204 223.296 82.4926C222.847 83.2481 222.615 84.1127 222.625 84.9915Z" fill="#30475E"/>
</g>
<defs>
<clipPath id="clip0">
<rect width="160" height="160" fill="white" transform="translate(157)"/>
</clipPath>
</defs>
</svg>
