<svg width="320" height="480" viewBox="0 0 320 480" fill="none" xmlns="http://www.w3.org/2000/svg">
<path d="M160 166C160 162.686 162.686 160 166 160H234C237.314 160 240 162.686 240 166V234C240 237.314 237.314 240 234 240H166C162.686 240 160 237.314 160 234V166Z" fill="#44A6D0"/>
<path d="M240 86C240 82.6863 242.686 80 246 80H314C317.314 80 320 82.6863 320 86V154C320 157.314 317.314 160 314 160H246C242.686 160 240 157.314 240 154V86Z" fill="#F05454" fill-opacity="0.9"/>
<path d="M80 93C80 85.8203 85.8203 80 93 80H147C154.18 80 160 85.8203 160 93V147C160 154.18 154.18 160 147 160H93C85.8203 160 80 154.18 80 147V93Z" fill="#DDDDDD"/>
<path d="M160 6C160 2.68629 162.686 0 166 0H234C237.314 0 240 2.68629 240 6V74C240 77.3137 237.314 80 234 80H166C162.686 80 160 77.3137 160 74V6Z" fill="#44A6D0"/>
<path d="M80 406C80 402.686 82.6863 400 86 400H154C157.314 400 160 402.686 160 406V474C160 477.314 157.314 480 154 480H86C82.6863 480 80 477.314 80 474V406Z" fill="#F05454" fill-opacity="0.75"/>
<path d="M160 333C160 325.82 165.82 320 173 320H227C234.18 320 240 325.82 240 333V387C240 394.18 234.18 400 227 400H173C165.82 400 160 394.18 160 387V333Z" fill="#EDECEC"/>
<path d="M0 326C0 322.686 2.68629 320 6 320H74C77.3137 320 80 322.686 80 326V394C80 397.314 77.3137 400 74 400H6C2.68629 400 0 397.314 0 394V326Z" fill="#44A6D0" fill-opacity="0.8"/>
<path d="M80 246C80 242.686 82.6863 240 86 240H154C157.314 240 160 242.686 160 246V314C160 317.314 157.314 320 154 320H86C82.6863 320 80 317.314 80 314V246Z" fill="#F05454" fill-opacity="0.75"/>
</svg>
