<svg width="52" height="60" viewBox="0 0 52 60" fill="none" xmlns="http://www.w3.org/2000/svg">
<rect y="8" width="52" height="52" rx="10" fill="#30475E" fill-opacity="0.9"/>
<path d="M13.368 21.172C12.5467 21.172 11.9013 20.952 11.432 20.512C10.9627 20.072 10.728 19.4707 10.728 18.708C10.728 17.9453 10.9627 17.344 11.432 16.904C11.9013 16.4347 12.5467 16.2 13.368 16.2C14.1893 16.2 14.8347 16.4347 15.304 16.904C15.8027 17.344 16.052 17.9453 16.052 18.708C16.052 19.4707 15.8027 20.072 15.304 20.512C14.8347 20.952 14.1893 21.172 13.368 21.172ZM11.52 25H15.26V47H11.52V25ZM21.4252 30.544C21.4252 27.7573 21.3665 25.9093 21.2492 25H24.7252C24.8425 25.968 24.9012 27.2733 24.9012 28.916H25.0332C25.6785 27.5667 26.6612 26.5107 27.9812 25.748C29.3305 24.956 30.8265 24.56 32.4692 24.56C35.0505 24.56 36.9865 25.396 38.2772 27.068C39.5678 28.74 40.2132 31.2333 40.2132 34.548V47H36.4732V34.504C36.4732 32.1573 36.0772 30.412 35.2852 29.268C34.4932 28.124 33.2905 27.552 31.6772 27.552C30.4452 27.552 29.3305 27.8747 28.3332 28.52C27.3358 29.136 26.5585 30.016 26.0012 31.16C25.4438 32.2747 25.1652 33.536 25.1652 34.944V47H21.4252V30.544Z" fill="white"/>
</svg>
