<svg width="130" height="130" viewBox="0 0 130 130" fill="none" xmlns="http://www.w3.org/2000/svg">
<path d="M31.7014 78.1301C28.4216 81.4057 24.0353 83.3364 19.4045 83.5428C14.7737 83.7492 10.2331 82.2163 6.67489 79.2453C3.11671 76.2744 0.798205 72.0802 0.174945 67.4868C-0.448314 62.8935 0.668732 58.2331 3.30659 54.4214C5.94446 50.6097 9.91242 47.9223 14.4308 46.8873C18.9492 45.8522 23.6913 46.5443 27.7254 48.8275C31.7595 51.1108 34.7939 54.8202 36.2324 59.2268C37.6708 63.6334 37.4093 68.4186 35.4993 72.6422L57.3578 94.5008C58.7228 93.8786 60.1807 93.4236 61.7036 93.1451V36.8643C57.7541 36.1528 54.1413 34.181 51.4062 31.2443C48.6712 28.3076 46.9609 24.564 46.5316 20.5739C46.1023 16.5839 46.977 12.5621 49.0247 9.11078C51.0725 5.65946 54.1831 2.96431 57.8908 1.42886C61.5986 -0.10659 65.7039 -0.399716 69.5922 0.593369C73.4805 1.58646 76.9424 3.81232 79.4598 6.93768C81.9771 10.063 83.4143 13.9197 83.5563 17.9303C83.6982 21.9409 82.5372 25.8896 80.2471 29.1851L100.824 49.7622C104.634 47.1128 109.297 45.9855 113.896 46.6021C118.495 47.2187 122.697 49.5346 125.674 53.0939C128.65 56.6532 130.187 61.198 129.981 65.8336C129.775 70.4692 127.841 74.8597 124.56 78.1408C121.279 81.4219 116.888 83.3558 112.253 83.5619C107.617 83.768 103.072 82.2313 99.5131 79.2543C95.9538 76.2773 93.6379 72.0757 93.0213 67.4767C92.4047 62.8777 93.532 58.2145 96.1814 54.4051L75.6043 33.8186C73.4079 35.3503 70.9049 36.3864 68.2686 36.8551V93.1451C72.3596 93.8753 76.0876 95.9567 78.8559 99.0561C81.6243 102.155 83.2731 106.094 83.5386 110.241C83.8041 114.388 82.6709 118.505 80.3203 121.932C77.9697 125.359 74.5376 127.899 70.573 129.145C66.6085 130.391 62.3406 130.271 58.4521 128.804C54.5637 127.338 51.2794 124.61 49.1248 121.056C46.9701 117.503 46.0696 113.329 46.5673 109.203C47.065 105.078 48.9321 101.238 51.87 98.2986L31.7014 78.1301ZM65 27.8572C66.2194 27.8572 67.4269 27.617 68.5535 27.1504C69.6801 26.6837 70.7037 25.9997 71.566 25.1375C72.4282 24.2752 73.1122 23.2516 73.5789 22.125C74.0455 20.9984 74.2857 19.7909 74.2857 18.5715C74.2857 17.3521 74.0455 16.1446 73.5789 15.018C73.1122 13.8914 72.4282 12.8678 71.566 12.0055C70.7037 11.1432 69.6801 10.4593 68.5535 9.99261C67.4269 9.52596 66.2194 9.28578 65 9.28578C62.5373 9.28578 60.1754 10.2641 58.434 12.0055C56.6926 13.7469 55.7143 16.1088 55.7143 18.5715C55.7143 21.0342 56.6926 23.3961 58.434 25.1375C60.1754 26.8789 62.5373 27.8572 65 27.8572ZM111.429 74.2858C112.648 74.2858 113.855 74.0456 114.982 73.5789C116.109 73.1123 117.132 72.4283 117.995 71.5661C118.857 70.7038 119.541 69.6801 120.007 68.5536C120.474 67.427 120.714 66.2195 120.714 65.0001C120.714 63.7806 120.474 62.5732 120.007 61.4466C119.541 60.32 118.857 59.2963 117.995 58.4341C117.132 57.5718 116.109 56.8878 114.982 56.4212C113.855 55.9545 112.648 55.7143 111.429 55.7143C108.966 55.7143 106.604 56.6927 104.863 58.4341C103.121 60.1755 102.143 62.5373 102.143 65.0001C102.143 67.4628 103.121 69.8246 104.863 71.5661C106.604 73.3075 108.966 74.2858 111.429 74.2858ZM65 120.714C67.4627 120.714 69.8246 119.736 71.566 117.995C73.3074 116.253 74.2857 113.891 74.2857 111.429C74.2857 108.966 73.3074 106.604 71.566 104.863C69.8246 103.121 67.4627 102.143 65 102.143C62.5373 102.143 60.1754 103.121 58.434 104.863C56.6926 106.604 55.7143 108.966 55.7143 111.429C55.7143 113.891 56.6926 116.253 58.434 117.995C60.1754 119.736 62.5373 120.714 65 120.714ZM18.5714 74.2858C19.7908 74.2858 20.9983 74.0456 22.1249 73.5789C23.2515 73.1123 24.2751 72.4283 25.1374 71.5661C25.9997 70.7038 26.6836 69.6801 27.1503 68.5536C27.6169 67.427 27.8571 66.2195 27.8571 65.0001C27.8571 63.7806 27.6169 62.5732 27.1503 61.4466C26.6836 60.32 25.9997 59.2963 25.1374 58.4341C24.2751 57.5718 23.2515 56.8878 22.1249 56.4212C20.9983 55.9545 19.7908 55.7143 18.5714 55.7143C16.1087 55.7143 13.7468 56.6927 12.0054 58.4341C10.264 60.1755 9.2857 62.5373 9.2857 65.0001C9.2857 67.4628 10.264 69.8246 12.0054 71.5661C13.7468 73.3075 16.1087 74.2858 18.5714 74.2858Z" fill="#222831"/>
</svg>
