<svg width="75" height="83" viewBox="0 0 75 83" fill="none" xmlns="http://www.w3.org/2000/svg">
<path d="M68.5714 23.4906L70.1786 21.9245C70.7143 20.8805 70.7143 19.8365 70.7143 18.7925C70.1786 17.7484 69.6429 16.7044 68.5714 16.1824L42.3214 1.56604C39.1071 -0.522013 34.8214 -0.522013 31.6071 1.56604L5.89286 16.1824C4.82143 16.1824 4.28572 16.7044 4.28571 17.7484C3.75 18.7925 3.21429 19.8365 3.75 20.8805C4.28571 21.9245 4.82143 22.9686 5.89286 23.4906L32.1429 38.1069C33.75 39.1509 35.8929 39.673 37.5 39.673C39.1071 39.673 41.25 39.1509 42.8571 38.1069L68.5714 23.4906ZM34.2857 33.4088L10.1786 19.8365L34.8214 6.26415C36.4286 5.22013 38.5714 5.22013 40.1786 6.26415L64.2857 19.8365L39.6429 33.4088C38.0357 34.4528 35.8929 34.4528 34.2857 33.4088V33.4088ZM29.4643 42.283L8.03571 30.2767C6.96429 30.2767 6.42857 29.7547 5.35714 29.7547C2.14286 29.7547 0 32.3648 0 34.9748V61.5975C0 65.2516 2.14286 68.9057 5.35714 70.4717L26.7857 82.478C27.8571 83 28.3929 83 29.4643 83C32.6786 83 34.8214 80.9119 34.8214 77.7799V51.1572C34.8214 47.5031 32.6786 44.3711 29.4643 42.283V42.283ZM29.4643 78.3019L8.03571 66.2956C6.42857 65.2516 5.35714 63.6855 5.35714 61.5975V34.9748L6.42857 32.8868L5.35714 34.9748L26.7857 46.9811C28.3929 48.0252 29.4643 49.5912 29.4643 51.6792V78.3019V78.3019ZM69.6429 29.7547C68.5714 29.7547 68.0357 29.7547 66.9643 30.2767L45.5357 42.283C42.3214 44.3711 40.1786 47.5031 40.1786 51.1572V77.7799C40.1786 80.9119 42.3214 83 45.5357 83C46.6071 83 47.1429 83 48.2143 82.478L69.6429 70.4717C72.8571 68.3836 75 65.2516 75 61.5975V34.9748C75 32.3648 72.8571 29.7547 69.6429 29.7547ZM69.6429 61.5975C69.6429 63.6855 68.5714 65.2516 66.9643 66.2956L45.5357 78.3019V51.6792C45.5357 49.5912 46.6071 48.0252 48.2143 46.9811L69.6429 34.9748V61.5975Z" fill="#44A6D0"/>
</svg>
